<?xml version="1.0" encoding="UTF-8"?>
<svg width="27px" height="17px" viewBox="0 0 27 17" version="1.1" xmlns="http://www.w3.org/2000/svg" xmlns:xlink="http://www.w3.org/1999/xlink">
    <!-- Generator: Sketch 47.1 (45422) - http://www.bohemiancoding.com/sketch -->
    <title>033-google-plus</title>
    <desc>Created with Sketch.</desc>
    <defs></defs>
    <g id="Bootcamp" stroke="none" stroke-width="1" fill="none" fill-rule="evenodd">
        <g transform="translate(-971.000000, -9534.000000)" id="Group-64" fill-rule="nonzero" fill="#F34A38">
            <g transform="translate(0.000000, 9408.000000)">
                <g id="Group-9" transform="translate(0.000000, 107.000000)">
                    <g id="Group-8" transform="translate(863.000000, 15.000000)">
                        <g id="033-google-plus" transform="translate(108.094340, 4.000000)">
                            <path d="M9.42442562,10.2412583 L13.6211225,10.2412583 C12.8844701,12.2927666 10.889348,13.7636396 8.55359666,13.746664 C5.71947515,13.7260508 3.37604489,11.4927765 3.26601891,8.70311797 C3.1480795,5.71281234 5.58359864,3.24303435 8.59363275,3.24303435 C9.96992469,3.24303435 11.2258739,3.7595779 12.1727304,4.60599104 C12.3970028,4.80652265 12.738394,4.80779293 12.9589736,4.60327725 L14.5003924,3.1742658 C14.7414296,2.95075361 14.7423089,2.57330612 14.5019751,2.34904331 C13.0003579,0.947747138 10.986009,0.0743115978 8.76468007,0.0315838726 C4.02682189,-0.0595301145 0.033236404,3.76685316 0.000234471986,8.43456844 C-0.03306055,13.137332 3.82711037,16.9598467 8.59363275,16.9598467 C13.1775015,16.9598467 16.9221363,13.4244739 17.1729627,8.97103235 C17.1796452,8.91519761 17.1840415,7.02819114 17.1840415,7.02819114 L9.42442562,7.02819114 C9.10636437,7.02819114 8.84856242,7.2821324 8.84856242,7.59543056 L8.84856242,9.67401891 C8.84856242,9.98731707 9.10642299,10.2412583 9.42442562,10.2412583 Z" id="Shape"></path>
                            <path d="M24.2950493,7.21694375 L24.2950493,5.18604878 C24.2950493,4.91149428 24.0691355,4.68896366 23.790407,4.68896366 L22.0550798,4.68896366 C21.7763512,4.68896366 21.5504375,4.91149428 21.5504375,5.18604878 L21.5504375,7.21694375 L19.4886667,7.21694375 C19.2099381,7.21694375 18.9840243,7.43947437 18.9840243,7.71402887 L18.9840243,9.42336884 C18.9840243,9.69792334 19.2099381,9.92045396 19.4886667,9.92045396 L21.5504375,9.92045396 L21.5504375,11.9513489 C21.5504375,12.2259034 21.7763512,12.448434 22.0550798,12.448434 L23.790407,12.448434 C24.0691355,12.448434 24.2950493,12.2259034 24.2950493,11.9513489 L24.2950493,9.92045396 L26.3568201,9.92045396 C26.6355486,9.92045396 26.8614624,9.69792334 26.8614624,9.42336884 L26.8614624,7.71402887 C26.8614624,7.43947437 26.6355486,7.21694375 26.3568201,7.21694375 L24.2950493,7.21694375 L24.2950493,7.21694375 Z" id="Shape"></path>
                        </g>
                    </g>
                </g>
            </g>
        </g>
    </g>
</svg>