<?xml version="1.0" encoding="UTF-8"?>
<svg width="25px" height="24px" viewBox="0 0 25 24" version="1.1" xmlns="http://www.w3.org/2000/svg" xmlns:xlink="http://www.w3.org/1999/xlink">
    <!-- Generator: Sketch 47.1 (45422) - http://www.bohemiancoding.com/sketch -->
    <title>021-pinterest</title>
    <desc>Created with Sketch.</desc>
    <defs></defs>
    <g id="Bootcamp" stroke="none" stroke-width="1" fill="none" fill-rule="evenodd">
        <g transform="translate(-1028.000000, -9530.000000)" id="Group-64" fill-rule="nonzero" fill="#9F1121">
            <g transform="translate(0.000000, 9408.000000)">
                <g id="Group-9" transform="translate(0.000000, 107.000000)">
                    <g id="Group-8" transform="translate(863.000000, 15.000000)">
                        <g id="021-pinterest" transform="translate(165.641509, 0.000000)">
                            <path d="M23.9760999,12.3518286 C24.171815,5.50396895 18.6331809,-0.0979736096 11.8120486,0.0012994067 C5.24692754,0.0968482301 -0.0498826262,5.52299725 0.000354417559,12.0938119 C0.0364041481,16.8021227 2.78205628,20.8645188 6.75357369,22.7973749 C6.98330351,22.9091589 7.24925749,22.7353439 7.23966361,22.4798293 C7.21070753,21.7077576 7.23565162,20.8823833 7.39002587,20.2188951 C7.54195804,19.5655902 8.13811592,17.0391909 8.53006952,15.3795392 C8.72084237,14.5715639 8.74386768,13.7325731 8.59024932,12.9166839 C8.53983784,12.6489494 8.50332295,12.3344296 8.50332295,11.9848792 C8.50332295,10.2112906 9.53050769,8.88710722 10.8095172,8.88710722 C11.8968818,8.88710722 12.4221612,9.70416023 12.4221612,10.6838557 C12.4221612,11.7782447 11.7258781,13.4144456 11.3665437,14.9308322 C11.0662844,16.2004328 12.0027633,17.2357584 13.2539215,17.2357584 C15.5192401,17.2357584 17.2605002,14.8452921 17.2605002,11.394711 C17.2605002,8.3406983 15.0677463,6.20533921 11.9367109,6.20533921 C8.31028246,6.20533921 6.18166216,8.92754963 6.18166216,11.7408282 C6.18166216,12.8370793 6.60367659,14.0127022 7.13017709,14.6517505 C7.23425615,14.7780239 7.24960635,14.8887604 7.21861522,15.0175942 C7.12186239,15.4205053 6.90684319,16.2869039 6.86463012,16.4641522 C6.80898562,16.6976707 6.67990432,16.7471327 6.43842927,16.6347668 C4.8464848,15.8931869 3.85133781,13.5641116 3.85133781,11.6932866 C3.85133781,7.66958711 6.77247073,3.97448949 12.272613,3.97448949 C16.693938,3.97448949 20.1299425,7.12748428 20.1299425,11.3413503 C20.1299425,15.7373527 17.3603347,19.2752195 13.5161543,19.2752195 C12.5003077,19.2752195 11.5322562,18.8597393 10.9631356,18.2963969 C10.78812,18.1231637 10.4922215,18.2020701 10.429774,18.4403602 C10.2293492,19.2045763 9.90536674,20.4407173 9.80099696,20.8426974 C9.6130732,21.5659473 9.21704947,22.4083132 8.82003728,23.141921 C8.71456274,23.3368592 8.82125832,23.5776515 9.03598679,23.6321179 C10.0161324,23.8808823 11.0441894,24.0093088 12.1039351,23.9994746 C18.3957179,23.9410513 23.7962001,18.6463547 23.9760999,12.3518286 Z" id="Shape"></path>
                        </g>
                    </g>
                </g>
            </g>
        </g>
    </g>
</svg>