<?xml version="1.0" encoding="UTF-8"?>
<svg width="24px" height="19px" viewBox="0 0 24 19" version="1.1" xmlns="http://www.w3.org/2000/svg" xmlns:xlink="http://www.w3.org/1999/xlink">
    <!-- Generator: Sketch 47.1 (45422) - http://www.bohemiancoding.com/sketch -->
    <title>011-stumbleupon</title>
    <desc>Created with Sketch.</desc>
    <defs></defs>
    <g id="Bootcamp" stroke="none" stroke-width="1" fill="none" fill-rule="evenodd">
        <g transform="translate(-1083.000000, -9533.000000)" id="Group-64" fill-rule="nonzero" fill="#FF4403">
            <g transform="translate(0.000000, 9408.000000)">
                <g id="Group-9" transform="translate(0.000000, 107.000000)">
                    <g id="Group-8" transform="translate(863.000000, 15.000000)">
                        <g id="011-stumbleupon" transform="translate(220.018868, 2.926829)">
                            <path d="M20.1642997,9.94247537 L20.1642997,12.6137236 C20.1642997,13.5127384 19.4439948,14.2782649 18.5638931,14.2632023 C17.7084112,14.2485548 17.0169649,13.5333754 17.0169649,12.6562429 L17.0169649,10.0813601 C17.0169649,9.76030033 16.7037585,9.53750359 16.4089009,9.64881301 L15.0204921,10.172922 C14.9163222,10.2122391 14.8015844,10.2109938 14.6982275,10.1693639 L13.8713139,9.8361473 C13.5750047,9.71677284 13.2540756,9.93980679 13.2540756,10.265077 L13.2540756,12.573517 C13.2540756,15.5644017 15.5796067,18.0601167 18.5078016,18.1056604 C21.4881976,18.1520344 23.927131,15.6895285 23.927131,12.6561836 L23.927131,9.94235677 C23.927131,9.7121473 23.7443982,9.52546533 23.5189291,9.52546533 L20.5724435,9.52546533 C20.3470325,9.52564323 20.1642997,9.7122659 20.1642997,9.94247537 Z" id="Shape"></path>
                            <path d="M13.2540756,5.24334385 L13.2540756,6.51969584 C13.2540756,6.70904639 13.3674198,6.87918317 13.5398749,6.94862554 L14.7273184,7.42707221 C14.8306753,7.46870206 14.9453551,7.4700067 15.049583,7.43063032 L16.7219331,6.79930368 C16.8992076,6.73241129 17.0169068,6.55978384 17.0169068,6.36675658 L17.0169068,5.28337255 C17.0169068,2.45123864 14.8148234,0.0878852224 12.0420122,0.0447135342 C9.2197872,0.000770923003 6.91016611,2.3326351 6.91016611,5.20503491 L6.91016611,12.6137236 C6.91016611,13.5127384 6.18986116,14.2782649 5.30975942,14.2632023 C4.45427754,14.2485548 3.76283124,13.5333754 3.76283124,12.6562429 L3.76283124,9.94241607 C3.76283124,9.7122066 3.5800985,9.52552463 3.3546294,9.52552463 L0.408201837,9.52552463 C0.182790808,9.52552463 0,9.7121473 0,9.94241607 L0,12.5734577 C0,15.5642831 2.32541496,18.0600574 5.2536099,18.1057198 C8.23400589,18.1522123 10.6730554,15.6896471 10.6730554,12.6562429 L10.6730554,5.20497561 C10.6730554,4.45623147 11.2876227,3.85129412 12.0285991,3.88865423 C12.7218454,3.92370158 13.2540756,4.5345098 13.2540756,5.24334385 Z" id="Shape"></path>
                        </g>
                    </g>
                </g>
            </g>
        </g>
    </g>
</svg>