<?xml version="1.0" encoding="UTF-8"?>
<svg width="24px" height="20px" viewBox="0 0 24 20" version="1.1" xmlns="http://www.w3.org/2000/svg" xmlns:xlink="http://www.w3.org/1999/xlink">
    <!-- Generator: Sketch 47.1 (45422) - http://www.bohemiancoding.com/sketch -->
    <title>008-twitter</title>
    <desc>Created with Sketch.</desc>
    <defs></defs>
    <g id="Bootcamp" stroke="none" stroke-width="1" fill="none" fill-rule="evenodd">
        <g transform="translate(-917.000000, -9532.000000)" id="Group-64" fill-rule="nonzero" fill="#76A9EA">
            <g transform="translate(0.000000, 9408.000000)">
                <g id="Group-9" transform="translate(0.000000, 107.000000)">
                    <g id="Group-8" transform="translate(863.000000, 15.000000)">
                        <g id="008-twitter" transform="translate(54.018868, 2.000000)">
                            <path d="M23.5512221,2.33824561 C23.0194945,2.57340864 22.46752,2.75893196 21.9011335,2.89324433 C22.5252265,2.30175781 22.9944631,1.5619341 23.2591891,0.736157467 L23.2591891,0.736157467 C23.3347501,0.500412495 23.0780178,0.29655798 22.8645799,0.422781344 L22.8645799,0.422781344 C22.0766451,0.888917415 21.2279114,1.23860676 20.3418932,1.46224733 C20.2904884,1.47522465 20.2374498,1.4818006 20.1842362,1.4818006 C20.0228449,1.4818006 19.8659465,1.42203509 19.7425399,1.31356098 C18.7998655,0.48493282 17.5874472,0.0285733847 16.3287003,0.0285733847 C15.7840194,0.0285733847 15.2340871,0.113246042 14.6941324,0.280263586 C13.0211712,0.797785195 11.7303328,2.17413778 11.3253376,3.87224647 C11.1733988,4.50918271 11.1322632,5.1467009 11.2029813,5.76705178 C11.2110917,5.83833975 11.1773081,5.88809585 11.1564778,5.91143175 C11.1198934,5.95234232 11.0680218,5.97579461 11.0141664,5.97579461 C11.0081565,5.97579461 11.0019716,5.97550364 10.995845,5.97492169 C7.33379195,5.63559093 4.03151421,3.8759709 1.69729234,1.02026187 L1.69729234,1.02026187 C1.5782619,0.874601626 1.35000353,0.892467266 1.25512928,1.05477107 L1.25512928,1.05477107 C0.798029059,1.83690201 0.556467291,2.73146427 0.556467291,3.64173898 C0.556467291,5.03677193 1.11841932,6.3514386 2.09452725,7.30983997 C1.68404728,7.21277193 1.28675403,7.05989559 0.917701327,6.85545914 L0.917701327,6.85545914 C0.739155672,6.75652888 0.519474498,6.88368335 0.516965524,7.08736329 L0.516965524,7.08736329 C0.491408989,9.15977749 1.70797007,11.0038374 3.53041941,11.8342114 C3.49371836,11.8350843 3.45701731,11.8354917 3.42025791,11.8354917 C3.13137571,11.8354917 2.83887591,11.8076748 2.55098563,11.7527976 L2.55098563,11.7527976 C2.34991755,11.7145058 2.18099936,11.9047428 2.24343199,12.0991699 L2.24343199,12.0991699 C2.83496658,13.9410766 4.42507318,15.2987488 6.32792641,15.6070039 C4.74867259,16.6643355 2.909594,17.2220693 0.995479548,17.2220693 L0.398751963,17.2217202 C0.214896617,17.2217202 0.0593985218,17.3412512 0.0125448744,17.5188601 C-0.0336085939,17.693792 0.0514048111,17.8783261 0.208186568,17.9692837 C2.3650881,19.2212169 4.82534219,19.8828858 7.32404779,19.8828858 C9.51123206,19.8828858 11.5571552,19.4499786 13.4050444,18.5962687 C15.0990692,17.813614 16.596052,16.6948293 17.8543904,15.2709902 C19.0266068,13.9446264 19.9432579,12.4134771 20.5787871,10.7201404 C21.184617,9.10600599 21.5048322,7.38368849 21.5048322,5.73935131 L21.5048322,5.66102182 C21.5047739,5.39699444 21.6245045,5.14856312 21.8333912,4.97945058 C22.6260522,4.33756782 23.3163121,3.58197347 23.8849158,2.73367565 L23.8849158,2.73367565 C24.0350459,2.50968592 23.7982686,2.22895678 23.5512221,2.33824561 L23.5512221,2.33824561 Z" id="Shape"></path>
                        </g>
                    </g>
                </g>
            </g>
        </g>
    </g>
</svg>