<?xml version="1.0" encoding="UTF-8"?>
<svg width="263px" height="48px" viewBox="0 0 263 48" version="1.1" xmlns="http://www.w3.org/2000/svg" xmlns:xlink="http://www.w3.org/1999/xlink">
    <!-- Generator: Sketch 47.1 (45422) - http://www.bohemiancoding.com/sketch -->
    <title>flaticon-logo</title>
    <desc>Created with Sketch.</desc>
    <defs></defs>
    <g id="Bootcamp" stroke="none" stroke-width="1" fill="none" fill-rule="evenodd">
        <g transform="translate(-611.000000, -6650.000000)" id="Group-37" fill-rule="nonzero">
            <g transform="translate(0.000000, 2700.000000)">
                <g id="Group-28" transform="translate(0.000000, 3438.000000)">
                    <g id="Group-61">
                        <g id="Group-51" transform="translate(232.000000, 264.000000)">
                            <g id="Group-48" transform="translate(0.000000, 237.000000)">
                                <g id="Group-50">
                                    <g id="flaticon-logo" transform="translate(379.000000, 11.000000)">
                                        <g id="Group" transform="translate(65.975936, 9.786408)" fill="#000000">
                                            <g id="Shape">
                                                <path d="M0.278877005,4.04271845 C0.278877005,2.28256311 1.6756016,0.889165049 3.44385027,0.889165049 L19.5578877,0.889165049 C21.1609626,0.889165049 22.4355615,2.16046602 22.4355615,3.75518447 C22.4355615,5.35363107 21.1609626,6.62073786 19.5578877,6.62073786 L6.60882353,6.62073786 L6.60882353,12.7213981 L17.7072861,12.7213981 C19.3117647,12.7213981 20.5854278,13.990835 20.5854278,15.5874175 C20.5854278,17.1858641 19.3112968,18.4529709 17.7072861,18.4529709 L6.60882353,18.4529709 L6.60882353,26.6427961 C6.60882353,28.4010874 5.21163102,29.7935534 3.44385027,29.7935534 C1.6756016,29.7935534 0.278877005,28.4006214 0.278877005,26.6427961 L0.278877005,4.04271845 L0.278877005,4.04271845 Z"></path>
                                                <path d="M24.7264706,3.79759223 C24.7264706,2.03557282 26.1231952,0.644038835 27.8914439,0.644038835 C29.6582888,0.644038835 31.0559492,2.0351068 31.0559492,3.79759223 L31.0559492,23.8163883 L42.7720588,23.8163883 C44.3751337,23.8163883 45.6492647,25.0867573 45.6492647,26.6838058 C45.6492647,28.2799223 44.3751337,29.5498252 42.7720588,29.5498252 L27.8914439,29.5498252 C26.1231952,29.5498252 24.7264706,28.1582913 24.7264706,26.3958058 L24.7264706,3.79759223 L24.7264706,3.79759223 Z"></path>
                                                <path d="M47.2083556,25.4959223 L57.2395053,2.93732039 C57.9376337,1.38034951 59.2117647,0.440854369 60.9388369,0.440854369 L61.3094251,0.440854369 C63.0341578,0.440854369 64.2680481,1.38081553 64.9661765,2.93732039 L74.9977941,25.4959223 C75.2018048,25.9465631 75.3258021,26.3557282 75.3258021,26.7648932 C75.3258021,28.4434951 74.0114305,29.7944854 72.3245989,29.7944854 C70.8455214,29.7944854 69.8591578,28.9346796 69.283623,27.625165 L67.3502005,23.1229515 L54.6889037,23.1229515 L52.6764037,27.8306796 C52.1411096,29.0567767 51.0733289,29.7944854 49.7580214,29.7944854 C48.1123663,29.7944854 46.8382353,28.4849709 46.8382353,26.8469126 C46.8382353,26.3953398 47.0024733,25.9465631 47.2083556,25.4959223 Z M65.0082888,17.5530874 L61.0211898,8.09429126 L57.0317513,17.5530874 L65.0082888,17.5530874 Z"></path>
                                                <path d="M81.3534759,6.70462136 L75.2687166,6.70462136 C73.664238,6.70462136 72.3493984,5.39370874 72.3493984,3.79759223 C72.3493984,2.19961165 73.6647059,0.889631068 75.2687166,0.889631068 L93.7667781,0.889631068 C95.3698529,0.889631068 96.6851604,2.19961165 96.6851604,3.79759223 C96.6851604,5.39370874 95.3698529,6.70462136 93.7667781,6.70462136 L87.6834225,6.70462136 L87.6834225,26.6432621 C87.6834225,28.4015534 86.2843583,29.7940194 84.5184492,29.7940194 C82.7502005,29.7940194 81.3534759,28.4010874 81.3534759,26.6432621 L81.3534759,6.70462136 Z"></path>
                                            </g>
                                            <g transform="translate(98.729947, 0.000000)" id="Shape">
                                                <path d="M0.28776738,3.79759223 C0.28776738,2.03557282 1.68449198,0.644038835 3.45414439,0.644038835 C5.22005348,0.644038835 6.6177139,2.0351068 6.6177139,3.79759223 L6.6177139,26.6437282 C6.6177139,28.4020194 5.22005348,29.7944854 3.45414439,29.7944854 C1.68495989,29.7944854 0.28776738,28.4015534 0.28776738,26.6437282 L0.28776738,3.79759223 Z"></path>
                                                <path d="M10.3558824,15.3022136 L10.3558824,15.2187961 C10.3558824,7.07231068 16.5220588,0.398912621 25.3595588,0.398912621 C29.6737299,0.398912621 32.5930481,1.54438835 34.9784759,3.30594175 C35.634492,3.79712621 36.2123663,4.69700971 36.2123663,5.80240777 C36.2123663,7.52295146 34.8156417,8.87347573 33.0862299,8.87347573 C32.2229278,8.87347573 31.6492647,8.5463301 31.193984,8.25879612 C29.427139,6.9478835 27.5774733,6.21157282 25.3160428,6.21157282 C20.4665775,6.21157282 16.9726604,10.224466 16.9726604,15.1377087 L16.9726604,15.2183301 C16.9726604,20.1311068 20.3842246,24.2260194 25.3160428,24.2260194 C27.9901738,24.2260194 29.7574866,23.4076893 31.5669118,21.9732816 C32.057754,21.5659806 32.7170455,21.2784466 33.4568182,21.2784466 C35.0612968,21.2784466 36.416377,22.5893592 36.416377,24.1845437 C36.416377,25.1659806 35.9222594,25.9460971 35.3485963,26.4372816 C32.7568182,28.6900194 29.7167781,30.0410097 25.1115642,30.0410097 C16.6446524,30.0414757 10.3558824,23.5307184 10.3558824,15.3022136 Z"></path>
                                                <path d="M37.9052807,15.3022136 L37.9052807,15.2187961 C37.9052807,7.07231068 44.3578209,0.398912621 53.2369652,0.398912621 C62.1184492,0.398912621 68.4872326,6.98982524 68.4872326,15.1381748 L68.4872326,15.2187961 C68.4872326,23.3662136 62.0370321,30.0414757 53.1541444,30.0414757 C44.2764037,30.0414757 37.9052807,23.4500971 37.9052807,15.3022136 Z M61.8695187,15.3022136 L61.8695187,15.2187961 C61.8695187,10.3074175 58.2548797,6.21250485 53.1541444,6.21250485 C48.0571524,6.21250485 44.5215909,10.2253981 44.5215909,15.1386408 L44.5215909,15.2192621 C44.5215909,20.1320388 48.1385695,24.2269515 53.2369652,24.2269515 C58.3377005,24.2264854 61.8695187,20.2149903 61.8695187,15.3022136 Z"></path>
                                                <path d="M72.1678476,3.87774757 C72.1678476,2.11899029 73.5669118,0.726058252 75.3342246,0.726058252 L75.9897727,0.726058252 C77.5114305,0.726058252 78.4149733,1.46376699 79.2787433,2.56823301 L91.4880348,18.5363883 L91.4880348,3.75565049 C91.4880348,2.0351068 92.8870989,0.644038835 94.6141711,0.644038835 C96.3375,0.644038835 97.7356283,2.0351068 97.7356283,3.75565049 L97.7356283,26.5598447 C97.7356283,28.3213981 96.3379679,29.712466 94.5706551,29.712466 L94.3666444,29.712466 C92.8426471,29.712466 91.9391043,28.9756893 91.0753342,27.8702913 L78.4154412,11.3303301 L78.4154412,26.6828738 C78.4154412,28.4010874 77.0187166,29.7940194 75.2907086,29.7940194 C73.5673797,29.7940194 72.1683155,28.4010874 72.1683155,26.6828738 L72.1683155,3.87774757 L72.1678476,3.87774757 Z"></path>
                                            </g>
                                        </g>
                                        <g id="Group">
                                            <path d="M22.6339572,26.160932 L28.4908422,26.160932 L33.7108957,17.5223301 L17.3998663,17.5223301 L12.0197861,8.63953398 L39.0769385,8.63953398 L44.2965241,0 L4.33803476,0 C2.77239305,0 1.32981283,0.839300971 0.560561497,2.19774757 C-0.20868984,3.55246602 -0.184826203,5.21848544 0.623262032,6.55176699 L24.1967914,45.4648544 C24.9819519,46.7608544 26.3908422,47.5507573 27.9110963,47.5507573 C29.4299465,47.5507573 30.8388369,46.7608544 31.6239973,45.4648544 L32.9800134,43.2260971 L22.6339572,26.160932 Z" id="Shape" fill="#000000"></path>
                                            <g transform="translate(29.946524, 0.000000)" id="Shape" fill="#A9FD00">
                                                <path d="M13.8385695,8.63953398 L13.8530749,8.63953398 L13.8530749,8.64139806 L23.9843583,8.64326214 L25.2500668,6.55176699 C26.0581551,5.21848544 26.0820187,3.55246602 25.3122995,2.19774757 C24.543984,0.839300971 23.1014037,4.4408921e-15 21.5362299,4.4408921e-15 L19.0590909,4.4408921e-15 L13.8385695,8.63953398 L13.8385695,8.63953398 Z"></path>
                                                <polygon points="11.3661096 12.7484272 0.339237968 30.983767 5.38990642 39.3339029 21.4969251 12.7484272"></polygon>
                                            </g>
                                        </g>
                                    </g>
                                </g>
                            </g>
                        </g>
                    </g>
                </g>
            </g>
        </g>
    </g>
</svg>