<?xml version="1.0" encoding="UTF-8"?>
<svg width="263px" height="69px" viewBox="0 0 263 69" version="1.1" xmlns="http://www.w3.org/2000/svg" xmlns:xlink="http://www.w3.org/1999/xlink">
    <!-- Generator: Sketch 47.1 (45422) - http://www.bohemiancoding.com/sketch -->
    <title>freepik_logo</title>
    <desc>Created with Sketch.</desc>
    <defs></defs>
    <g id="Bootcamp" stroke="none" stroke-width="1" fill="none" fill-rule="evenodd">
        <g transform="translate(-232.000000, -6639.000000)" id="Group-37" fill="#066DC1">
            <g transform="translate(0.000000, 2700.000000)">
                <g id="Group-28" transform="translate(0.000000, 3438.000000)">
                    <g id="Group-61">
                        <g id="Group-51" transform="translate(232.000000, 264.000000)">
                            <g id="Group-48" transform="translate(0.000000, 237.000000)">
                                <g id="Group-50">
                                    <g id="freepik_logo">
                                        <g id="Group-25">
                                            <path d="M52.275073,44.2645917 C50.8630222,44.6293571 47.2698984,45.8500952 40.5860889,46.6279039 C37.4961714,46.9926693 30.9414286,47.4455608 23.616127,46.6279039 C19.4790794,46.1259683 13.694127,44.7672937 13.694127,44.7672937 C13.694127,44.7672937 14.513854,50.0349356 19.0158222,55.0182751 C23.4778413,59.8721076 28.117327,60.6407205 28.117327,60.6407205 C28.117327,60.6407205 40.4478032,64.7267063 55.275873,58.3754965 C59.5996063,56.1991649 63.3709651,53.0189621 65.2362857,50.2119541 C70.0540063,43.1319797 69.0076444,36.6926437 69.0076444,36.6926437 C69.0076444,36.6926437 60.7850222,42.2752407 52.275073,44.2645917" id="Fill-1"></path>
                                            <path d="M30.437454,45.7221208 C41.9482032,45.4071658 47.7731048,44.4025282 53.775473,42.5901958 C62.6902921,39.9609727 68.9292825,35.4213289 68.9292825,35.4213289 C68.9292825,35.4213289 64.7430667,26.1650229 63.1051492,24.2553686 C61.4664635,22.344948 56.2338857,13.2756226 45.453746,11.95603 C42.7295175,11.641075 28.2072127,12.1828589 19.5197968,20.2184268 C18.6509016,21.0353175 14.2380508,24.8960071 12.786819,32.0641076 C11.6905206,37.5984268 13.5174286,43.9105547 13.5174286,43.9105547 C13.5174286,43.9105547 23.1613206,45.8991393 30.437454,45.7221208 L30.437454,45.7221208 Z M54.0520444,20.7195961 C57.1419619,20.5425776 59.7386603,22.8078016 59.916127,25.8500679 C60.0935937,28.9321825 57.7342857,31.5713677 54.7334857,31.7981966 C51.6428,31.9752152 49.0468698,29.7099912 48.8686349,26.6278765 C48.6911683,23.5457619 51.0013079,20.897381 54.0520444,20.7195961 L54.0520444,20.7195961 Z M20.3879238,29.7896878 C20.0714032,24.9841332 23.803581,20.7594444 28.6704698,20.4835714 C33.5373587,20.1686164 37.7727429,23.792515 38.0884952,28.6961578 C38.4042476,33.5507566 34.6728381,37.7256349 29.8059492,38.0015079 C24.9390603,38.3271914 20.7036762,34.6442866 20.3879238,29.7896878 L20.3879238,29.7896878 Z" id="Fill-2"></path>
                                            <path d="M16.3399937,22.3939921 L14.2472698,20.8084885 C14.2472698,20.8084885 11.334819,22.5809727 8.96629206,26.3918519 C8.42236825,25.8010238 8.32403175,24.8063483 7.78164444,24.1273942 C7.13938413,23.3097372 7.05026667,23.8116728 5.59903492,23.8116728 C5.00671111,23.8116728 4.64179048,23.6737363 4.41515556,23.5357998 C4.69172698,23.1718007 4.81925714,22.7679533 4.78007619,22.2660176 C4.64179048,21.1724877 3.73371429,20.3548307 2.59823492,20.4046411 C1.50270476,20.5425776 0.594628571,21.4483607 0.682977778,22.4920802 C0.821263492,23.5856102 1.72933968,24.4032672 2.86481905,24.3534568 C3.00310476,24.3534568 3.14139048,24.3044127 3.31885714,24.2653307 C3.54626032,24.6293298 4.00029841,25.0822213 4.9083746,25.1312654 C6.4087746,25.1803095 6.4087746,24.4523113 7.00109841,25.8109859 C7.3667873,26.48994 7.86999365,27.1305785 8.22569524,27.5344259 C6.44872381,31.2073686 6.67535873,35.3431649 6.67535873,35.3431649 L11.4930794,37.0267566 C11.4930794,37.0267566 11.3547937,32.9009224 12.1737524,29.4938907 C13.1117905,26.1650229 16.3399937,22.3939921 16.3399937,22.3939921" id="Fill-3"></path>
                                            <path d="M36.8055111,11.641075 C41.3958286,10.9621208 47.1316127,11.3261199 47.1316127,11.3261199 L47.5856508,9.10074427 C47.5856508,9.10074427 44.4957333,7.69225926 39.352273,8.05702469 L38.8982349,6.83552028 C40.4485714,6.52056526 41.5832825,5.06380247 41.4449968,3.52734303 C41.3067111,1.803903 39.8554794,0.445228395 38.0293397,0.573202822 C36.3015365,0.71113933 34.9394222,2.25679453 34.9793714,3.98023457 C35.0684889,5.42780159 36.164019,6.65850176 37.5760698,6.88533069 L38.0792762,8.20492328 C37.0329143,8.34285979 35.8974349,8.51987831 34.7127873,8.84479541 C31.2971302,9.66245238 29.1652254,11.4740185 29.1652254,11.4740185 L30.1616508,13.7392425 C30.1716381,13.7285141 32.2144254,12.3200291 36.8055111,11.641075" id="Fill-4"></path>
                                            <path d="M71.7917968,12.8618131 C70.6962667,12.9108571 69.7881905,13.8564885 69.8765397,14.9492522 C69.8765397,15.127037 69.9656571,15.3140176 70.0148254,15.4918025 C69.057581,16.3577372 69.511619,17.8543483 69.5607873,18.7118536 C69.6099556,19.6176367 68.7410603,19.8046173 68.011219,20.0705282 C68.011219,20.0705282 68.011219,20.0705282 68.011219,20.0214841 C65.5528063,16.4366675 61.6431619,14.5262469 61.6431619,14.5262469 L58.8697651,17.8351905 C58.8697651,17.8351905 61.7814476,20.6912425 63.8741714,23.4576358 C66.0560127,26.2247954 67.4680635,29.6716755 67.4680635,29.6716755 L72.1075492,26.8156235 C72.1075492,26.8156235 70.8837206,24.3243369 68.9192952,21.2813042 C70.0540063,20.7395203 70.7354476,20.2375847 70.6962667,19.1049727 C70.557981,17.8344242 70.4196952,17.2934065 71.012019,16.4757496 C71.3277714,16.6136861 71.6934603,16.7025785 72.058381,16.7025785 C73.1539111,16.6527681 74.0619873,15.707903 73.9736381,14.6151393 C73.8353524,13.6396217 72.9272762,12.822731 71.7917968,12.8618131" id="Fill-5"></path>
                                        </g>
                                        <path d="M91.9016127,20.394679 C92.2665333,19.5777884 93.224546,19.1739409 94.6266095,19.1739409 C95.1689968,19.1739409 95.8112571,19.222985 96.5418667,19.3517257 C97.2724762,19.4888959 97.8648,19.5287443 98.1306159,19.5287443 C98.8120571,19.5287443 99.3552127,19.2130229 99.858419,18.7110873 C100.361625,18.2091517 100.589029,17.6183236 100.589029,16.8504771 C100.589029,14.5852531 98.2197333,13.4434453 93.6785841,13.4434453 C91.082654,13.4434453 89.0390984,13.7584004 87.5379302,14.4373545 C86.0375302,15.0779929 84.9911683,16.1209462 84.3988444,17.5692795 C83.7573524,18.9769982 83.4907683,20.9763113 83.4907683,23.4185538 L83.4907683,25.7810996 L81.6246794,25.7810996 C78.9895683,25.7810996 77.6658667,26.687649 77.6166984,28.6371517 C77.6166984,29.4548086 77.9324508,30.1835732 78.5247746,30.6755467 C79.1670349,31.2165644 80.0751111,31.4924374 81.2497714,31.4924374 L83.4316127,31.4924374 L83.4316127,52.3683616 C83.4316127,53.9538651 83.7973016,55.1355212 84.5271429,55.9531781 C85.2577524,56.7700688 86.2157651,57.1739162 87.3013079,57.1739162 C88.5251365,57.1739162 89.4831492,56.7210247 90.2137587,55.9531781 C90.9443683,55.0864771 91.3100571,53.9147831 91.3100571,52.3683616 L91.3100571,31.4924374 L93.2253143,31.4924374 C94.5874286,31.4924374 95.6829587,31.3545009 96.5026857,30.9905018 C97.3224127,30.6265026 97.6873333,29.8088457 97.6873333,28.5382972 C97.6873333,26.7665794 96.1869333,25.820948 93.1853651,25.820948 L91.2701079,25.820948 L91.2701079,23.9603377 C91.3092889,22.4430362 91.4867556,21.2613801 91.9016127,20.394679" id="Fill-6"></path>
                                        <path d="M121.242,29.5230106 C121.242,28.164336 120.422273,27.0715723 118.871937,26.2539153 C117.3216,25.4370247 115.732851,25.0324109 114.054984,25.0324109 C112.376349,25.0324109 111.093365,25.4860688 110.095403,26.2539153 C109.098978,27.0715723 108.091797,28.2923104 107.182952,29.887776 C107.133784,28.3022725 106.818032,27.031724 106.274876,26.2539153 C105.633384,25.4370247 104.725308,25.0324109 103.411594,25.0324109 C100.864832,25.0324109 99.5910667,26.8056614 99.5910667,30.3406675 L99.5910667,52.2610776 C99.5910667,53.8465811 99.9567556,55.0274709 100.687365,55.8451279 C101.368806,56.6620185 102.375219,57.065866 103.46153,57.065866 C104.547841,57.065866 105.554254,56.7018668 106.324813,55.8842099 C107.055422,55.0673192 107.420343,53.8848968 107.420343,52.3001596 L107.420343,45.7612028 C107.420343,43.3978907 107.558629,41.3594956 107.59781,39.6360556 C107.776044,37.9524638 108.052616,36.5539409 108.466705,35.3722848 C108.920743,34.1515467 109.463898,33.2848457 110.194508,32.6549356 C110.925117,32.0150635 111.882362,31.7491526 113.05779,31.7491526 C113.876749,31.7491526 114.834762,31.9261711 115.970241,32.2909365 C117.105721,32.6557019 117.747213,32.8327205 118.062965,32.8327205 C118.882692,32.8327205 119.563365,32.5177654 120.244806,31.9261711 C120.925479,31.2464506 121.242,30.5176861 121.242,29.5230106" id="Fill-7"></path>
                                        <path d="M148.538063,42.2752407 C149.722711,41.7342231 150.265098,40.4146305 150.265098,38.4643616 C150.265098,36.28803 149.721943,34.2005908 148.577244,32.1522337 C147.481714,30.0647945 145.853016,28.3911649 143.622006,27.0715723 C141.440165,25.7519797 138.804286,25.0722593 135.704381,25.0722593 C133.295905,25.0722593 131.114063,25.4370247 129.198806,26.1650229 C127.283549,26.8945538 125.604914,28.0263995 124.331917,29.4341182 C123.008984,30.8426032 121.961854,32.5660432 121.281181,34.5653563 C120.59974,36.563903 120.234819,38.6911905 120.234819,41.0537363 C120.234819,45.9972275 121.64687,49.8571508 124.421035,52.7622469 C127.1952,55.6681093 131.153244,57.075828 136.247537,57.075828 C138.478546,57.075828 140.383816,56.760873 142.110851,56.209127 C143.838654,55.6681093 145.249937,54.8895344 146.385416,54.0335617 C147.520895,53.1668607 148.38979,52.2610776 148.932178,51.3154462 C149.475333,50.4096631 149.801073,49.5429621 149.801073,48.8632416 C149.801073,48.046351 149.574438,47.4555229 149.070463,47.0026314 C148.567257,46.5489735 147.885816,46.3229109 147.066089,46.3229109 C146.336248,46.3229109 145.743156,46.4608474 145.339054,46.8248466 C144.34186,47.6915476 143.562083,48.4103501 142.92981,49.0019444 C142.288317,49.5437284 141.606876,50.045664 140.887022,50.5475996 C140.1664,51.0495353 139.385854,51.3644903 138.616063,51.5913192 C137.796337,51.7683377 136.92821,51.9062743 136.019365,51.9062743 C134.657251,51.9062743 133.384254,51.5415088 132.199606,50.8625547 C131.103308,50.1828342 130.106114,49.139881 129.425441,47.7796737 C128.744,46.371955 128.379079,44.8255335 128.379079,43.0147337 L143.798705,43.0147337 C145.813067,43.0438536 147.402584,42.7281323 148.538063,42.2752407 L148.538063,42.2752407 Z M128.289962,38.5931023 C128.606483,35.9638792 129.336324,33.915522 130.560921,32.5560811 C131.785517,31.1974065 133.424203,30.5184524 135.378641,30.5184524 C137.471365,30.5184524 139.15,31.1974065 140.383816,32.5560811 C141.607644,33.915522 142.387422,35.865791 142.564889,38.5931023 L128.289962,38.5931023 L128.289962,38.5931023 Z" id="Fill-8"></path>
                                        <path d="M181.244171,42.2752407 C182.428819,41.7342231 182.971975,40.4146305 182.971975,38.4643616 C182.971975,36.28803 182.428819,34.2005908 181.284121,32.1522337 C180.187822,30.0647945 178.559124,28.3911649 176.328114,27.0715723 C174.146273,25.7519797 171.510394,25.0722593 168.410489,25.0722593 C166.002013,25.0722593 163.820171,25.4370247 161.904914,26.1650229 C159.989657,26.8945538 158.31179,28.0263995 157.038025,29.4341182 C155.715092,30.8426032 154.66873,32.5660432 153.988057,34.5653563 C153.306616,36.563903 152.941695,38.6911905 152.941695,41.0537363 C152.941695,45.9972275 154.352978,49.8571508 157.127143,52.7622469 C159.90054,55.6681093 163.860121,57.075828 168.953644,57.075828 C171.184654,57.075828 173.089924,56.760873 174.817727,56.209127 C176.54553,55.6681093 177.956813,54.8895344 179.092292,54.0335617 C180.18859,53.1668607 181.095898,52.2610776 181.639054,51.3154462 C182.280546,50.4096631 182.507949,49.5429621 182.507949,48.8632416 C182.507949,48.046351 182.280546,47.4555229 181.77734,47.0026314 C181.273365,46.5489735 180.592692,46.3229109 179.772965,46.3229109 C179.042356,46.3229109 178.450032,46.4608474 178.04593,46.8248466 C177.048737,47.6915476 176.268959,48.4103501 175.636686,49.0019444 C174.995194,49.5437284 174.313752,50.045664 173.59313,50.5475996 C172.873276,51.0495353 172.09273,51.3644903 171.32294,51.5913192 C170.503213,51.7683377 169.635086,51.9062743 168.726241,51.9062743 C167.363359,51.9062743 166.090362,51.5415088 164.905714,50.8625547 C163.809416,50.1828342 162.812222,49.139881 162.131549,47.7796737 C161.450876,46.371955 161.085956,44.8255335 161.085956,43.0147337 L176.555517,43.0147337 C178.65746,43.0438536 180.296914,42.7281323 181.244171,42.2752407 L181.244171,42.2752407 Z M161.145111,38.5931023 C161.371746,35.9638792 162.190705,33.915522 163.415302,32.5560811 C164.63913,31.1974065 166.278584,30.5184524 168.233022,30.5184524 C170.326514,30.5184524 172.004381,31.1974065 173.238197,32.5560811 C174.462025,33.915522 175.241803,35.865791 175.420038,38.5931023 L161.145111,38.5931023 L161.145111,38.5931023 Z" id="Fill-9"></path>
                                        <path d="M210.633727,27.0225282 C208.590171,25.8010238 206.359162,25.1611517 203.949917,25.1611517 C201.906362,25.1611517 200.12939,25.6140432 198.490705,26.4807443 C196.852019,27.3474453 195.351619,28.6570758 193.850451,30.4786041 L193.850451,29.5720547 C193.850451,28.164336 193.48553,27.031724 192.665803,26.2638774 C191.984362,25.4462205 191.076286,25.0822213 189.941575,25.0822213 C188.806095,25.0822213 187.9372,25.4462205 187.305695,26.1757513 C186.624254,26.9037496 186.308502,28.0363616 186.308502,29.4839286 L186.308502,63.476082 C186.308502,65.16044 186.535905,66.4302222 187.039111,67.3758536 C187.542317,68.2816367 188.539511,68.7352945 190.00073,68.7352945 C192.547492,68.7352945 193.772089,67.0118545 193.772089,63.5657407 L193.772089,51.7093316 C195.183371,53.4818157 196.635371,54.7914462 198.18494,55.7071914 C199.734508,56.6129744 201.640546,57.065866 203.870787,57.065866 C205.736876,57.065866 207.514616,56.7018668 209.153302,55.9731023 C210.742819,55.2443377 212.20327,54.2006182 213.338749,52.8411772 C214.562578,51.4334586 215.52059,49.7590626 216.201263,47.7114718 C216.932641,45.6730767 217.247625,43.4469347 217.247625,41.0445406 C217.247625,37.7754453 216.606133,34.9193933 215.471422,32.5169991 C214.325956,30.1146049 212.68727,28.2532284 210.633727,27.0225282 L210.633727,27.0225282 Z M208.3136,46.4508854 C207.672108,47.9474965 206.764032,49.0801085 205.678489,49.8579171 C204.58219,50.5866817 203.308425,50.9514471 202.03466,50.9514471 C199.853587,50.9514471 198.027448,50.084746 196.527048,48.361306 C195.025879,46.6386323 194.29527,44.2354718 194.29527,41.1043131 C194.29527,37.7953695 195.025879,35.2941208 196.527048,33.5706808 C198.027448,31.8472407 199.8436,30.981306 202.03466,30.981306 C203.446711,30.981306 204.67054,31.3453051 205.806787,32.1629621 C206.941498,32.9798527 207.849575,34.1615088 208.442667,35.6090758 C209.084159,37.1056869 209.349975,38.8781711 209.349975,40.9663765 C209.359962,43.1319797 209.04421,44.9443122 208.3136,46.4508854 L208.3136,46.4508854 Z" id="Fill-10"></path>
                                        <path d="M225.194444,25.1611517 C224.009797,25.1611517 223.101721,25.5251508 222.33193,26.3420414 C221.650489,27.1596984 221.285568,28.3413545 221.285568,29.8778139 L221.285568,52.4764118 C221.285568,53.9737892 221.601321,55.1945273 222.33193,56.0121843 C223.06254,56.829075 224.019784,57.2329224 225.194444,57.2329224 C226.290743,57.2329224 227.287937,56.7800309 228.057727,56.0121843 C228.788337,55.1945273 229.154025,54.0128713 229.154025,52.4273677 L229.154025,29.650985 C229.154025,28.2432663 228.788337,27.109888 228.057727,26.3818898 C227.287937,25.5251508 226.37986,25.1611517 225.194444,25.1611517" id="Fill-11"></path>
                                        <path d="M227.969378,14.7231896 C227.149651,14.0434691 226.281524,13.7285141 225.244381,13.7285141 C224.208006,13.7285141 223.240775,14.0925132 222.470984,14.8212778 C221.651257,15.5500423 221.285568,16.5056358 221.285568,17.5884374 C221.285568,18.8099418 221.651257,19.764769 222.470984,20.4444894 C223.200825,21.1242099 224.158838,21.4391649 225.244381,21.4391649 C226.290743,21.4391649 227.248756,21.0743995 227.969378,20.3954453 C228.788337,19.7157249 229.154025,18.8099418 229.154025,17.5393933 C229.154025,16.3178889 228.788337,15.4128721 227.969378,14.7231896" id="Fill-12"></path>
                                        <path d="M262.274222,51.6204392 C262.047587,51.1185035 261.593549,50.3997011 260.951289,49.4441076 L252.856197,36.7416878 L257.042413,32.9308086 C259.223486,31.020388 260.269848,29.4839286 260.269848,28.3022725 C260.269848,27.3964894 259.954863,26.5788325 259.273422,25.9389603 C258.591981,25.2990882 257.772254,25.0324109 256.81501,25.0324109 C255.996051,25.0324109 255.265441,25.2101958 254.722286,25.6730494 C254.080025,26.1259409 253.310235,26.8547055 252.175524,28.0363616 L243.349822,37.3417116 L243.349822,18.2681578 C243.349822,16.6826543 243.03407,15.4121058 242.30346,14.6342972 C241.572851,13.8664506 240.615606,13.4127928 239.39101,13.4127928 C238.068076,13.4127928 237.16,13.8664506 236.478559,14.7722337 C235.797117,15.6787831 235.481365,17.0374577 235.481365,18.7700935 L235.481365,52.3492037 C235.481365,53.9347072 235.847054,55.1163633 236.527727,55.9340203 C237.2084,56.7516772 238.117244,57.1547584 239.39101,57.1547584 C240.437371,57.1547584 241.395384,56.7018668 242.165175,55.9340203 C242.984133,55.1163633 243.349822,53.9347072 243.349822,52.3990141 L243.349822,46.1359303 L247.624387,42.1380705 L254.633168,53.5707081 C255.502063,54.9293827 256.222686,55.8359321 256.676724,56.3371014 C257.17993,56.8796517 257.900552,57.1547584 258.907733,57.1547584 C260.004032,57.1547584 260.951289,56.7899929 261.63273,56.0612284 C262.362571,55.3324638 262.678324,54.3385547 262.678324,53.1070882 C262.629924,52.5752663 262.501625,52.1223748 262.274222,51.6204392" id="Fill-13"></path>
                                    </g>
                                </g>
                            </g>
                        </g>
                    </g>
                </g>
            </g>
        </g>
    </g>
</svg>