<?xml version="1.0" encoding="UTF-8"?>
<svg width="220px" height="65px" viewBox="0 0 220 65" version="1.1" xmlns="http://www.w3.org/2000/svg" xmlns:xlink="http://www.w3.org/1999/xlink">
    <!-- Generator: Sketch 47.1 (45422) - http://www.bohemiancoding.com/sketch -->
    <title>logo (1)</title>
    <desc>Created with Sketch.</desc>
    <defs></defs>
    <g id="Bootcamp" stroke="none" stroke-width="1" fill="none" fill-rule="evenodd">
        <g transform="translate(-989.000000, -6642.000000)" id="Group-37" fill-rule="nonzero">
            <g transform="translate(0.000000, 2700.000000)">
                <g id="Group-28" transform="translate(0.000000, 3438.000000)">
                    <g id="Group-61">
                        <g id="Group-51" transform="translate(232.000000, 264.000000)">
                            <g id="Group-48" transform="translate(0.000000, 237.000000)">
                                <g id="Group-50">
                                    <g id="logo-(1)" transform="translate(757.000000, 3.000000)">
                                        <path d="M27.6917431,16.4395833 L15.4740061,16.4395833 L15.4740061,6.40520833 L6.45198777,6.40520833 L6.45198777,16.4395833 L0,16.4395833 L0,24.5645833 L6.45198777,24.5645833 L6.45198777,37.6458333 C6.45198777,46.3869792 10.7510703,51.146875 19.093578,51.146875 C23.0970469,51.1654489 27.0062983,49.9250509 30.2752294,47.5989583 L26.911315,40.4963542 C25.1082569,41.6203125 22.787156,42.6630208 20.6342508,42.6630208 C17.795107,42.6630208 15.5614679,41.1057292 15.5614679,36.8671875 L15.5614679,24.578125 L27.7724771,24.578125 L27.7724771,16.453125 L27.6917431,16.4395833 Z" id="_Trazado_" fill="#FF5252"></path>
                                        <path d="M65.5223242,16.4395833 L56.5137615,16.4395833 L56.5137615,35.1338542 C56.5137615,40.584375 53.506422,42.7510417 49.6379205,42.7510417 C45.769419,42.7510417 42.7620795,40.584375 42.7620795,35.1338542 L42.7620795,16.4395833 L33.706422,16.4395833 L33.706422,35.8244792 C33.706422,46.55625 41.1877676,51.1401042 49.6110092,51.1401042 C58.0342508,51.1401042 65.5155963,46.55625 65.5155963,35.8244792 L65.5155963,16.4395833 L65.5223242,16.4395833 Z" id="_Trazado_2" fill="#FF5252"></path>
                                        <path d="M99.2287462,16.4395833 L87.017737,16.4395833 L87.017737,6.40520833 L77.9889908,6.40520833 L77.9889908,16.4395833 L71.5370031,16.4395833 L71.5370031,24.5645833 L77.9889908,24.5645833 L77.9889908,37.6458333 C77.9889908,46.3869792 82.2880734,51.146875 90.630581,51.146875 C94.6340499,51.1654489 98.5433013,49.9250509 101.812232,47.5989583 L98.448318,40.503125 C96.6452599,41.6270833 94.324159,42.6697917 92.1712538,42.6697917 C89.3321101,42.6697917 87.0984709,41.1125 87.0984709,36.8739583 L87.0984709,24.578125 L99.3094801,24.578125 L99.3094801,16.453125 L99.2287462,16.4395833 Z" id="_Trazado_3" fill="#FF5252"></path>
                                        <path d="M124.168807,15.5729167 C120.257225,15.4222142 116.508663,17.1575747 114.077064,20.2447917 L114.077064,16.5208333 L105.250153,16.5208333 L105.250153,64.3838542 L114.278899,64.3838542 L114.278899,46.8203125 C116.431804,49.4135417 119.694801,51.2348958 124.168807,51.2348958 C133.453211,51.2348958 140.423242,43.6177083 140.423242,33.4072917 C140.423242,23.196875 133.453211,15.5729167 124.168807,15.5729167 Z M123.119266,42.7510417 C117.959021,42.7510417 114.433639,38.7697917 114.433639,33.4072917 C114.433639,28.0447917 117.959021,24.0635417 123.119266,24.0635417 C128.447706,24.0635417 131.804893,28.2140625 131.804893,33.4072917 C131.804893,38.6005208 128.555352,42.7510417 123.119266,42.7510417 Z" id="_Trazado_compuesto_" fill="#FF5252"></path>
                                        <path d="M150.972477,0.677083333 C150.972477,0.677083333 152.04893,15.315625 165.026911,13.0947917 C165.026911,13.0947917 163.640979,-0.0473958333 150.972477,0.677083333 Z" id="Shape" fill="#2EBD59"></path>
                                        <path d="M168.908869,4.90885417 L168.908869,4.90885417 L168.014067,4.428125 C168.014067,4.428125 167.549847,5.18645833 166.910703,6.459375 C166.655046,6.97395833 166.379205,7.58333333 166.089908,8.25364583 L165.874618,8.775 C164.394606,12.2410157 163.584039,15.9589878 163.486239,19.7302083 C163.486239,19.9875 163.486239,20.2470486 163.486239,20.5088542 L164.320489,20.6984375 C164.320489,20.6984375 164.360856,10.9755208 170.01896,5.525 L168.908869,4.90885417 Z" id="Shape" stroke="#2EBD59" stroke-width="1.34556575" fill="#2EBD59"></path>
                                        <path d="M171.203058,16.4395833 L171.203058,20.1635417 C168.771459,17.0763247 165.022897,15.3409642 161.111315,15.4916667 C151.826911,15.4916667 144.856881,23.1088542 144.856881,33.3192708 C144.856881,43.5296875 151.907645,51.146875 161.111315,51.146875 C165.753517,51.146875 169.023242,49.2442708 171.203058,46.5630208 L171.203058,51.146875 L180.056881,51.146875 L180.056881,16.4395833 L171.203058,16.4395833 Z M162.08685,42.7510417 C156.75841,42.7510417 153.394495,38.59375 153.394495,33.4005208 C153.394495,28.2072917 156.75841,24.0567708 162.080122,24.0567708 C167.240367,24.0567708 170.765749,28.0380208 170.765749,33.4005208 C170.765749,38.7630208 167.247095,42.7510417 162.08685,42.7510417 Z" id="_Trazado_compuesto_2" fill="#FF5252"></path>
                                        <path d="M210.930887,0 L210.930887,19.9875 C208.777982,17.2791667 205.514985,15.5729167 201.040979,15.5729167 C191.756575,15.5729167 184.786544,23.1901042 184.786544,33.4005208 C184.786544,43.6109375 191.837309,51.228125 201.040979,51.228125 C205.68318,51.228125 208.952905,49.3255208 211.132722,46.6442708 L211.132722,51.228125 L219.986544,51.228125 L219.986544,0 L210.930887,0 Z M201.989602,42.7510417 C196.661162,42.7510417 193.303976,38.6005208 193.303976,33.4072917 C193.303976,28.2140625 196.66789,24.0635417 201.989602,24.0635417 C207.149847,24.0635417 210.675229,28.0447917 210.675229,33.4072917 C210.675229,38.7697917 207.149847,42.7510417 201.989602,42.7510417 Z" id="_Trazado_compuesto_3" fill="#FF5252"></path>
                                    </g>
                                </g>
                            </g>
                        </g>
                    </g>
                </g>
            </g>
        </g>
    </g>
</svg>