<?xml version="1.0" encoding="UTF-8"?>
<svg width="179px" height="53px" viewBox="0 0 179 53" version="1.1" xmlns="http://www.w3.org/2000/svg" xmlns:xlink="http://www.w3.org/1999/xlink">
    <!-- Generator: Sketch 47.1 (45422) - http://www.bohemiancoding.com/sketch -->
    <title>freepik_logo</title>
    <desc>Created with Sketch.</desc>
    <defs></defs>
    <g id="Bootcamp" stroke="none" stroke-width="1" fill="none" fill-rule="evenodd">
        <g transform="translate(-333.000000, -9515.000000)" id="Group-64" fill="#066DC1">
            <g transform="translate(0.000000, 9408.000000)">
                <g id="Group-9" transform="translate(0.000000, 107.000000)">
                    <g id="freepik_logo" transform="translate(333.000000, 0.000000)">
                        <path d="M14.4670544,6.72904706 C14.8180536,5.95059832 15.7395187,5.56575546 17.0880944,5.56575546 C17.60979,5.56575546 18.2275485,5.6124916 18.9302857,5.73517395 C19.633023,5.86588908 20.20275,5.90386218 20.4584252,5.90386218 C21.1138699,5.90386218 21.6363044,5.60299832 22.1203138,5.12468319 C22.6043231,4.64636807 22.823051,4.0833437 22.823051,3.35163109 C22.823051,1.19300588 20.5441429,0.104930252 16.1762355,0.104930252 C13.6793384,0.104930252 11.7137432,0.405063866 10.2698435,1.05206723 C8.82668282,1.66255798 7.82023895,2.65643109 7.2505119,4.03660756 C6.63349235,5.37808067 6.37707823,7.2833084 6.37707823,9.61062185 L6.37707823,11.8619891 L4.58217942,11.8619891 C2.04759609,11.8619891 0.774392857,12.7258773 0.72710034,14.5836387 C0.72710034,15.3628176 1.03080697,16.0572874 1.60053401,16.5261092 C2.21829252,17.0416672 3.09172619,17.304558 4.22157398,17.304558 L6.32017942,17.304558 L6.32017942,37.1980857 C6.32017942,38.7089773 6.67191752,39.8350261 7.37391582,40.614205 C8.07665306,41.3926538 8.9981182,41.7774966 10.0422483,41.7774966 C11.2193886,41.7774966 12.1408537,41.3459176 12.843591,40.614205 C13.5463282,39.7882899 13.8980663,38.6717345 13.8980663,37.1980857 L13.8980663,17.304558 L15.7402577,17.304558 C17.0504082,17.304558 18.1041446,17.1731126 18.8925995,16.8262429 C19.6810544,16.4793731 20.0320536,15.7001941 20.0320536,14.4894361 C20.0320536,12.8010933 18.5888929,11.8999622 15.7018325,11.8999622 L13.8596412,11.8999622 L13.8596412,10.1269101 C13.8973274,8.68101092 14.0680238,7.55496218 14.4670544,6.72904706" id="Fill-6"></path>
                        <path d="M42.688125,15.4278101 C42.688125,14.1330731 41.8996701,13.0917336 40.4084779,12.3125546 C38.9172857,11.5341059 37.3891463,11.1485328 35.7752891,11.1485328 C34.160693,11.1485328 32.9266539,11.580842 31.9667636,12.3125546 C31.0083512,13.0917336 30.0395935,14.2550252 29.1654209,15.7754101 C29.1181284,14.2645185 28.8144218,13.0537605 28.2919872,12.3125546 C27.6749677,11.5341059 26.801534,11.1485328 25.5379371,11.1485328 C23.0883325,11.1485328 21.8631607,12.8383361 21.8631607,16.2069891 L21.8631607,37.0958504 C21.8631607,38.606742 22.2148988,39.7320605 22.9176361,40.5112395 C23.5730808,41.2896882 24.5410995,41.6745311 25.5859685,41.6745311 C26.6308376,41.6745311 27.5988563,41.3276613 28.3400187,40.5484824 C29.042756,39.7700336 29.3937551,38.6432546 29.3937551,37.1330933 L29.3937551,30.9018521 C29.3937551,28.6497546 29.5267653,26.707284 29.5644515,25.0649471 C29.7358869,23.4605832 30.0019073,22.1278731 30.400199,21.0018244 C30.8369158,19.8385328 31.3593503,19.0126176 32.0620876,18.4123504 C32.7648248,17.8025899 33.685551,17.5491924 34.8161378,17.5491924 C35.6038537,17.5491924 36.5253189,17.7178807 37.6174804,18.0654807 C38.709642,18.4130807 39.3266616,18.5817689 39.6303682,18.5817689 C40.4188231,18.5817689 41.0735289,18.2816353 41.7289736,17.7178807 C42.3836794,17.0701471 42.688125,16.3756773 42.688125,15.4278101" id="Fill-7"></path>
                        <path d="M68.9428614,27.5799353 C70.0823155,27.0643773 70.6040111,25.8068832 70.6040111,23.9483916 C70.6040111,21.8744756 70.0815765,19.8852689 68.9805476,17.933305 C67.9268112,15.9440983 66.3602466,14.3492277 64.2143486,13.0917336 C62.1157432,11.8342395 59.5804209,11.1865059 56.5987755,11.1865059 C54.2821811,11.1865059 52.1835757,11.5341059 50.3413844,12.2278454 C48.499193,12.9230454 46.8845969,14.0016277 45.6601641,15.3431008 C44.3876998,16.6853042 43.380517,18.3276412 42.7258112,20.2328689 C42.0703665,22.1373664 41.7193673,24.1645462 41.7193673,26.4159134 C41.7193673,31.1267697 43.0775493,34.8050496 45.7458818,37.5734353 C48.4142143,40.3425513 52.2212619,41.6840244 57.12121,41.6840244 C59.267108,41.6840244 61.099693,41.3838908 62.7608427,40.8581092 C64.4227313,40.3425513 65.7801743,39.6006151 66.8723359,38.7849235 C67.9644974,37.9590084 68.8002449,37.0958504 69.3219405,36.1947193 C69.844375,35.3315613 70.1576879,34.5056462 70.1576879,33.8579126 C70.1576879,33.0794639 69.939699,32.5164395 69.4549507,32.0848605 C68.9709413,31.6525513 68.3154966,31.4371269 67.5270417,31.4371269 C66.8250434,31.4371269 66.2545774,31.5685723 65.865892,31.915442 C64.9067406,32.7413571 64.1567109,33.4263336 63.5485587,33.9900882 C62.9315391,34.5063765 62.2760944,34.9846916 61.5837024,35.4630067 C60.8905714,35.9413218 60.1398027,36.2414555 59.3993793,36.4576101 C58.6109243,36.6262983 57.7759158,36.7577437 56.9017432,36.7577437 C55.5915927,36.7577437 54.3671599,36.4101437 53.2277058,35.7631403 C52.1732304,35.1154067 51.2140791,34.1215336 50.5593733,32.8253361 C49.9039286,31.483863 49.5529294,30.0102143 49.5529294,28.2846286 L64.3843061,28.2846286 C66.3218214,28.3123782 67.8506998,28.0115143 68.9428614,27.5799353 L68.9428614,27.5799353 Z M49.4672117,24.0710739 C49.7716573,21.565579 50.4736556,19.6136151 51.6515349,18.3181479 C52.8294141,17.0234109 54.405585,16.3764076 56.2854626,16.3764076 C58.2983503,16.3764076 59.9129464,17.0234109 61.099693,18.3181479 C62.2768333,19.6136151 63.0268631,21.4721067 63.1975595,24.0710739 L49.4672117,24.0710739 L49.4672117,24.0710739 Z" id="Fill-8"></path>
                        <path d="M100.401253,27.5799353 C101.540707,27.0643773 102.063141,25.8068832 102.063141,23.9483916 C102.063141,21.8744756 101.540707,19.8852689 100.439678,17.933305 C99.3852024,15.9440983 97.8186378,14.3492277 95.6727398,13.0917336 C93.5741344,11.8342395 91.0388121,11.1865059 88.0571667,11.1865059 C85.7405723,11.1865059 83.6419668,11.5341059 81.7997755,12.2278454 C79.9575842,12.9230454 78.343727,14.0016277 77.1185553,15.3431008 C75.846091,16.6853042 74.8396471,18.3276412 74.1849413,20.2328689 C73.5294966,22.1373664 73.1784974,24.1645462 73.1784974,26.4159134 C73.1784974,31.1267697 74.5359405,34.8050496 77.204273,37.5734353 C79.8718665,40.3425513 83.680392,41.6840244 88.5796012,41.6840244 C90.7254991,41.6840244 92.5580842,41.3838908 94.2199728,40.8581092 C95.8818614,40.3425513 97.2393044,39.6006151 98.331466,38.7849235 C99.3859413,37.9590084 100.258636,37.0958504 100.781071,36.1947193 C101.39809,35.3315613 101.616818,34.5056462 101.616818,33.8579126 C101.616818,33.0794639 101.39809,32.5164395 100.914081,32.0848605 C100.429332,31.6525513 99.7746267,31.4371269 98.9861718,31.4371269 C98.2834345,31.4371269 97.7137075,31.5685723 97.3250221,31.915442 C96.3658707,32.7413571 95.615841,33.4263336 95.0076888,33.9900882 C94.3906692,34.5063765 93.7352245,34.9846916 93.0420935,35.4630067 C92.3497015,35.9413218 91.5989328,36.2414555 90.8585094,36.4576101 C90.0700544,36.6262983 89.2350459,36.7577437 88.3608733,36.7577437 C87.0499838,36.7577437 85.825551,36.4101437 84.6860969,35.7631403 C83.6316216,35.1154067 82.6724702,34.1215336 82.0177645,32.8253361 C81.3630587,31.483863 81.0120595,30.0102143 81.0120595,28.2846286 L95.8914677,28.2846286 C97.9132228,28.3123782 99.4901327,28.0115143 100.401253,27.5799353 L100.401253,27.5799353 Z M81.0689583,24.0710739 C81.2869473,21.565579 82.0746633,19.6136151 83.2525425,18.3181479 C84.4296828,17.0234109 86.0065927,16.3764076 87.8864702,16.3764076 C89.9000969,16.3764076 91.5139541,17.0234109 92.7007007,18.3181479 C93.877841,19.6136151 94.6278707,21.4721067 94.7993061,24.0710739 L81.0689583,24.0710739 L81.0689583,24.0710739 Z" id="Fill-9"></path>
                        <path d="M128.669616,13.0449975 C126.70402,11.8809756 124.558122,11.2712151 122.240789,11.2712151 C120.275194,11.2712151 118.566013,11.7027941 116.989842,12.5287092 C115.413671,13.3546244 113.97051,14.6026252 112.526611,16.3384345 L112.526611,15.4745462 C112.526611,14.1330731 112.175611,13.0537605 111.387156,12.3220479 C110.731712,11.5428689 109.858278,11.1959992 108.766855,11.1959992 C107.674694,11.1959992 106.838946,11.5428689 106.231533,12.2380689 C105.576088,12.9318084 105.272382,14.011121 105.272382,15.3905672 L105.272382,47.7830899 C105.272382,49.388184 105.49111,50.5982118 105.975119,51.4993429 C106.459128,52.3625008 107.41828,52.7948101 108.823754,52.7948101 C111.273359,52.7948101 112.451238,51.1524731 112.451238,47.8685294 L112.451238,36.5700689 C113.808681,38.259142 115.205288,39.5071429 116.695741,40.3797941 C118.186195,41.2429521 120.019519,41.6745311 122.164678,41.6745311 C123.959577,41.6745311 125.669497,41.3276613 127.245668,40.6331916 C128.774546,39.9387218 130.179281,38.9441185 131.271443,37.6486513 C132.448583,36.3071782 133.370048,34.7115773 134.024754,32.7603437 C134.72823,30.8178731 135.031198,28.6964908 135.031198,26.4071504 C135.031198,23.291895 134.414179,20.5702454 133.322756,18.280905 C132.220988,15.9915647 130.644817,14.2177824 128.669616,13.0449975 L128.669616,13.0449975 Z M126.438,31.559079 C125.82098,32.9852613 124.947547,34.0645739 123.903417,34.8057798 C122.848941,35.5002496 121.62377,35.8478496 120.398598,35.8478496 C118.300731,35.8478496 116.544258,35.0219345 115.101097,33.3795975 C113.657197,31.7379908 112.95446,29.4479202 112.95446,26.4641101 C112.95446,23.3108815 113.657197,20.9273387 115.101097,19.2850017 C116.544258,17.6426647 118.291125,16.8174798 120.398598,16.8174798 C121.75678,16.8174798 122.93392,17.1643496 124.026821,17.9435286 C125.118243,18.7219773 125.991677,19.8480261 126.562143,21.2274723 C127.179162,22.6536546 127.434838,24.3427277 127.434838,26.3326647 C127.444444,28.3963571 127.140737,30.1234034 126.438,31.559079 L126.438,31.559079 Z" id="Fill-10"></path>
                        <path d="M142.674851,11.2712151 C141.535397,11.2712151 140.661963,11.6180849 139.92154,12.3965336 C139.266095,13.1757126 138.915096,14.3017613 138.915096,15.7659168 L138.915096,37.3010513 C138.915096,38.7279639 139.218803,39.8912555 139.92154,40.6704345 C140.624277,41.4488832 141.545003,41.8337261 142.674851,41.8337261 C143.729327,41.8337261 144.688478,41.4021471 145.428901,40.6704345 C146.131639,39.8912555 146.483377,38.7652067 146.483377,37.2543151 L146.483377,15.5497622 C146.483377,14.2082891 146.131639,13.1282462 145.428901,12.4345067 C144.688478,11.6180849 143.815044,11.2712151 142.674851,11.2712151" id="Fill-11"></path>
                        <path d="M145.343923,1.32445126 C144.555468,0.676717647 143.720459,0.376584034 142.722883,0.376584034 C141.726045,0.376584034 140.795713,0.723453782 140.055289,1.41792353 C139.266834,2.11239328 138.915096,3.02301765 138.915096,4.05486387 C138.915096,5.21888571 139.266834,6.12877983 140.055289,6.77651345 C140.757287,7.42424706 141.678753,7.72438067 142.722883,7.72438067 C143.729327,7.72438067 144.650792,7.37678067 145.343923,6.72977731 C146.131639,6.0820437 146.483377,5.21888571 146.483377,4.00812773 C146.483377,2.84410588 146.131639,1.98167815 145.343923,1.32445126" id="Fill-12"></path>
                        <path d="M178.34006,36.4853597 C178.122071,36.0070445 177.685354,35.3220681 177.067595,34.4114437 L169.281326,22.3067849 L173.30784,18.6752412 C175.405707,16.8547227 176.412151,15.3905672 176.412151,14.2645185 C176.412151,13.4013605 176.109183,12.6221815 175.453738,12.012421 C174.798293,11.4026605 174.009838,11.1485328 173.089112,11.1485328 C172.301396,11.1485328 171.598659,11.3179513 171.076224,11.7590235 C170.458466,12.1906025 169.718043,12.8850723 168.62662,14.011121 L160.137613,22.8785723 L160.137613,4.70259748 C160.137613,3.19170588 159.833906,1.9809479 159.131169,1.23974202 C158.428432,0.508029412 157.507706,0.0757201681 156.329827,0.0757201681 C155.057362,0.0757201681 154.183929,0.508029412 153.528484,1.37118739 C152.873039,2.23507563 152.569332,3.52981261 152.569332,5.18091261 L152.569332,37.1798294 C152.569332,38.690721 152.921071,39.8167697 153.575776,40.5959487 C154.230482,41.3751277 155.104655,41.7592403 156.329827,41.7592403 C157.33627,41.7592403 158.257736,41.3276613 158.998159,40.5959487 C159.785875,39.8167697 160.137613,38.690721 160.137613,37.2272958 L160.137613,31.2589454 L164.249106,27.4492202 L170.990507,38.3438513 C171.826254,39.6385882 172.519385,40.5024765 172.956102,40.9800613 C173.440111,41.4970798 174.133242,41.7592403 175.102,41.7592403 C176.156475,41.7592403 177.067595,41.4116403 177.72304,40.7171706 C178.425038,40.0227008 178.728745,39.0755639 178.728745,37.9020487 C178.682191,37.3952538 178.558787,36.9636748 178.34006,36.4853597" id="Fill-13"></path>
                    </g>
                </g>
            </g>
        </g>
    </g>
</svg>