<?xml version="1.0" encoding="UTF-8"?>
<svg width="311px" height="50px" viewBox="0 0 311 50" version="1.1" xmlns="http://www.w3.org/2000/svg" xmlns:xlink="http://www.w3.org/1999/xlink">
    <!-- Generator: Sketch 47.1 (45422) - http://www.bohemiancoding.com/sketch -->
    <title>Group 8</title>
    <desc>Created with Sketch.</desc>
    <defs></defs>
    <g id="Bootcamp" stroke="none" stroke-width="1" fill="none" fill-rule="evenodd">
        <g transform="translate(-564.000000, -92.000000)" id="Group-56" fill="#FFFFFF">
            <g>
                <g id="Group-10" transform="translate(207.000000, 92.000000)">
                    <g id="Group-8" transform="translate(357.000000, 0.000000)">
                        <g id="Imported-Layers-Copy">
                            <g id="Group-25">
                                <path d="M37.543007,31.870506 C36.5288978,32.1331371 33.9483816,33.0120686 29.1481911,33.5720908 C26.9290686,33.8347219 22.2215714,34.1608038 16.960673,33.5720908 C13.9895206,33.2106971 9.83487302,32.2324514 9.83487302,32.2324514 C9.83487302,32.2324514 10.423586,36.0251537 13.6568178,39.6131581 C16.8613587,43.1079175 20.193353,43.6613187 20.193353,43.6613187 C20.193353,43.6613187 29.0488768,46.6032286 39.698127,42.0303575 C42.8033537,40.4633987 45.5118749,38.1736527 46.8515143,36.152607 C50.3115137,31.0550254 49.5600356,26.4187035 49.5600356,26.4187035 C49.5600356,26.4187035 43.6546978,30.4381733 37.543007,31.870506" id="Fill-1"></path>
                                <path d="M21.859626,32.919927 C30.1264368,32.6931594 34.3097752,31.9698203 38.620567,30.664941 C45.0230279,28.7719003 49.5037575,25.5033568 49.5037575,25.5033568 C49.5037575,25.5033568 46.4972933,18.8388165 45.3209708,17.4638654 C44.1440965,16.0883625 40.3861543,9.55844825 32.644054,8.60834159 C30.6875625,8.38157397 20.2579073,8.77165841 14.0187632,14.5572673 C13.3947384,15.1454286 10.2255092,17.9251251 9.18326095,23.0861575 C8.39591937,27.0708673 9.70797143,31.6155994 9.70797143,31.6155994 C9.70797143,31.6155994 16.6340394,33.0473803 21.859626,32.919927 L21.859626,32.919927 Z M38.8191956,14.9181092 C41.0383181,14.7906559 42.9032197,16.4216171 43.030673,18.6120489 C43.1581263,20.8311714 41.4637143,22.7313848 39.3085943,22.8947016 C37.08892,23.0221549 35.2245702,21.3911937 35.0965651,19.1720711 C34.9691117,16.9529486 36.6282121,15.0461143 38.8191956,14.9181092 L38.8191956,14.9181092 Z M14.6422362,21.4485752 C14.4149168,17.9885759 17.095299,14.9468 20.5906102,14.7481714 C24.0859213,14.5214038 27.1276971,17.1306108 27.3544648,20.6612337 C27.5812324,24.1565448 24.9014019,27.1624571 21.4060908,27.3610857 C17.9107797,27.5955778 14.8690038,24.9438863 14.6422362,21.4485752 L14.6422362,21.4485752 Z" id="Fill-2"></path>
                                <path d="M11.7350863,16.1236743 L10.2321302,14.9821117 C10.2321302,14.9821117 8.14046095,16.2583003 6.43942794,19.0021333 C6.04879175,18.5767371 5.97816825,17.8605708 5.58863556,17.3717238 C5.12737587,16.7830108 5.06337333,17.1444044 4.02112508,17.1444044 C3.59572889,17.1444044 3.33364952,17.0450902 3.17088444,16.9457759 C3.36951302,16.6836965 3.46110286,16.3929263 3.43296381,16.0315327 C3.33364952,15.2441911 2.68148571,14.6554781 1.86600508,14.6913416 C1.07921524,14.7906559 0.427051429,15.4428197 0.490502222,16.1942978 C0.589816508,16.9816394 1.24198032,17.5703524 2.05746095,17.5344889 C2.15677524,17.5344889 2.25608952,17.4991771 2.38354286,17.4710381 C2.54685968,17.7331175 2.87294159,18.0591994 3.5251054,18.0945111 C4.6026654,18.1298229 4.6026654,17.6056641 5.02806159,18.5839098 C5.2906927,19.0727568 5.65208635,19.5340165 5.90754476,19.8247867 C4.63135619,22.4693054 4.79412127,25.4470787 4.79412127,25.4470787 L8.25412063,26.6592648 C8.25412063,26.6592648 8.15480635,23.6886641 8.74296762,21.2356013 C9.41664952,18.8388165 11.7350863,16.1236743 11.7350863,16.1236743" id="Fill-3"></path>
                                <path d="M26.4330489,8.38157397 C29.7297314,7.89272698 33.8490673,8.15480635 33.8490673,8.15480635 L34.1751492,6.55253587 C34.1751492,6.55253587 31.9560267,5.53842667 28.262087,5.80105778 L27.9360051,4.9215746 C29.0494286,4.69480698 29.8643575,3.64593778 29.7650432,2.53968698 C29.6657289,1.29881016 28.6234806,0.320564444 27.3119803,0.412706032 C26.0711035,0.512020317 25.0928578,1.62489206 25.1215486,2.86576889 C25.1855511,3.90801714 25.972341,4.79412127 26.9864502,4.9574381 L27.3478438,5.90754476 C26.5963657,6.00685905 25.7808851,6.13431238 24.9300927,6.3682527 C22.4770298,6.95696571 20.9459346,8.26129333 20.9459346,8.26129333 L21.6615492,9.8922546 C21.6687219,9.88453016 23.1358146,8.87042095 26.4330489,8.38157397" id="Fill-4"></path>
                                <path d="M51.5595632,9.2605054 C50.7727733,9.29581714 50.1206095,9.97667175 50.1840603,10.7634616 C50.1840603,10.8914667 50.2480629,11.0260927 50.2833746,11.1540978 C49.595899,11.7775708 49.921981,12.8551308 49.9572927,13.4725346 C49.9926044,14.1246984 49.3685797,14.2593244 48.844421,14.4507803 C48.844421,14.4507803 48.844421,14.4507803 48.844421,14.4154686 C47.0788337,11.8344006 44.2709981,10.4588978 44.2709981,10.4588978 L42.2791949,12.8413371 C42.2791949,12.8413371 44.3703124,14.8976946 45.8732686,16.8894978 C47.4402273,18.8818527 48.4543365,21.3636063 48.4543365,21.3636063 L51.7863308,19.3072489 C51.7863308,19.3072489 50.9073994,17.5135225 49.4965848,15.322539 C50.3115137,14.9324546 50.8009124,14.571061 50.7727733,13.7555803 C50.673459,12.8407854 50.5741448,12.4512527 50.999541,11.8625397 C51.2263086,11.961854 51.4889397,12.0258565 51.751019,12.0258565 C52.5378089,11.989993 53.1899727,11.3096902 53.1265219,10.5229003 C53.0272076,9.82052762 52.3750438,9.23236635 51.5595632,9.2605054" id="Fill-5"></path>
                            </g>
                            <path d="M66.0020673,14.6841689 C66.2641467,14.0960076 66.952174,13.8052375 67.9591105,13.8052375 C68.3486432,13.8052375 68.8099029,13.8405492 69.3346133,13.9332425 C69.8593238,14.0320051 70.28472,14.0606959 70.4756241,14.0606959 C70.9650229,14.0606959 71.3551073,13.8333765 71.716501,13.4719829 C72.0778946,13.1105892 72.2412114,12.685193 72.2412114,12.1323435 C72.2412114,10.5013822 70.5396267,9.67928063 67.2782559,9.67928063 C65.413906,9.67928063 63.9462616,9.90604825 62.8681498,10.3948952 C61.7905898,10.8561549 61.0391117,11.6070813 60.6137156,12.6498813 C60.1530076,13.6634387 59.9615517,15.1029441 59.9615517,16.8613587 L59.9615517,18.5623917 L58.6213606,18.5623917 C56.7288717,18.5623917 55.7782133,19.2151073 55.7429016,20.6187492 C55.7429016,21.2074622 55.9696692,21.7321727 56.3950654,22.0863937 C56.8563251,22.4759263 57.5084889,22.6745549 58.3521086,22.6745549 L59.9190673,22.6745549 L59.9190673,37.7052203 C59.9190673,38.8467829 60.1816984,39.6975752 60.7058571,40.2862883 C61.2305676,40.8744495 61.9185949,41.1652197 62.6982121,41.1652197 C63.5771435,41.1652197 64.2651708,40.8391378 64.7898813,40.2862883 C65.3145917,39.6622635 65.5772229,38.8186438 65.5772229,37.7052203 L65.5772229,22.6745549 L66.9527257,22.6745549 C67.9309714,22.6745549 68.7177613,22.5752406 69.3064743,22.3131613 C69.8951873,22.0510819 70.1572667,21.4623689 70.1572667,20.547574 C70.1572667,19.2719371 69.0797067,18.5910825 66.9240349,18.5910825 L65.5485321,18.5910825 L65.5485321,17.2514432 C65.5766711,16.158986 65.7041244,15.3081937 66.0020673,14.6841689" id="Fill-6"></path>
                            <path d="M87.0738,21.2565676 C87.0738,20.2783219 86.485087,19.4915321 85.3716635,18.902819 C84.25824,18.3146578 83.1172292,18.0233359 81.9122159,18.0233359 C80.7066508,18.0233359 79.7852349,18.3499695 79.0685168,18.902819 C78.3529022,19.4915321 77.6295632,20.3704635 76.9768476,21.5191987 C76.9415359,20.3776362 76.7147683,19.4628413 76.3246838,18.902819 C75.8639759,18.3146578 75.2118121,18.0233359 74.2683263,18.0233359 C72.4392883,18.0233359 71.5244933,19.3000762 71.5244933,21.8452806 L71.5244933,37.6279759 C71.5244933,38.7695384 71.7871244,39.619779 72.3118349,40.2084921 C72.8012337,40.7966533 73.524021,41.0874235 74.3041898,41.0874235 C75.0843587,41.0874235 75.807146,40.8253441 76.3605473,40.2366311 C76.8852578,39.6484698 77.1473371,38.7971257 77.1473371,37.6561149 L77.1473371,32.948066 C77.1473371,31.2464813 77.2466514,29.7788368 77.2747905,28.53796 C77.4027956,27.325774 77.6014241,26.3188375 77.8988152,25.4680451 C78.2248971,24.5891137 78.6149816,23.9650889 79.1396921,23.5115537 C79.6644025,23.0508457 80.3518781,22.8593898 81.1960495,22.8593898 C81.7842108,22.8593898 82.4722381,22.9868432 83.2877187,23.2494743 C84.1031994,23.5121054 84.5639073,23.6395587 84.7906749,23.6395587 C85.3793879,23.6395587 85.8682349,23.4127911 86.3576337,22.9868432 C86.8464806,22.4974444 87.0738,21.972734 87.0738,21.2565676" id="Fill-7"></path>
                            <path d="M106.677337,30.4381733 C107.528129,30.0486406 107.917662,29.098534 107.917662,27.6943403 C107.917662,26.1273816 107.527577,24.6244254 106.705476,23.1496083 C105.918686,21.6466521 104.748984,20.4416387 103.146714,19.4915321 C101.579755,18.5414254 99.6867143,18.0520267 97.460419,18.0520267 C95.7306952,18.0520267 94.1637365,18.3146578 92.7882337,18.8388165 C91.4127308,19.3640787 90.2071657,20.1790076 89.2929225,21.1925651 C88.3428159,22.2066743 87.590786,23.4475511 87.101939,24.8870565 C86.6125403,26.3260102 86.350461,27.8576571 86.350461,29.5586902 C86.350461,33.1180038 87.3645702,35.8971486 89.3569251,37.9888178 C91.34928,40.0810387 94.1918756,41.0945962 97.8505035,41.0945962 C99.452774,41.0945962 100.821104,40.8678286 102.061429,40.4705714 C103.302306,40.0810387 104.315863,39.5204648 105.131344,38.9041644 C105.946825,38.2801397 106.57085,37.6279759 106.960382,36.9471213 C107.350467,36.2949575 107.584407,35.6709327 107.584407,35.181534 C107.584407,34.5933727 107.421642,34.1679765 107.059697,33.8418946 C106.698303,33.515261 106.208904,33.3524959 105.620191,33.3524959 C105.096032,33.3524959 104.670084,33.4518102 104.379866,33.7138895 C103.6637,34.3379143 103.103677,34.8554521 102.64959,35.2814 C102.188883,35.6714844 101.699484,36.0328781 101.182498,36.3942717 C100.66496,36.7556654 100.104386,36.982433 99.5515365,37.1457498 C98.9628235,37.2732032 98.3393505,37.3725175 97.6866349,37.3725175 C96.7083892,37.3725175 95.794146,37.1098863 94.9433537,36.6210394 C94.1560121,36.1316406 93.4398457,35.3807143 92.9509987,34.4013651 C92.4616,33.3878076 92.1995206,32.2743841 92.1995206,30.9706083 L103.273615,30.9706083 C104.720293,30.9915746 105.861856,30.7642552 106.677337,30.4381733 L106.677337,30.4381733 Z M92.1355181,27.7870337 C92.3628375,25.893993 92.8869962,24.4191759 93.7664794,23.4403784 C94.6459625,22.4621327 95.8228368,21.9732857 97.2264787,21.9732857 C98.7294349,21.9732857 99.935,22.4621327 100.821104,23.4403784 C101.700036,24.4191759 102.260058,25.8233695 102.387511,27.7870337 L92.1355181,27.7870337 L92.1355181,27.7870337 Z" id="Fill-8"></path>
                            <path d="M130.166269,30.4381733 C131.017061,30.0486406 131.407145,29.098534 131.407145,27.6943403 C131.407145,26.1273816 131.017061,24.6244254 130.194959,23.1496083 C129.407618,21.6466521 128.237916,20.4416387 126.635646,19.4915321 C125.068687,18.5414254 123.175646,18.0520267 120.949351,18.0520267 C119.219627,18.0520267 117.652669,18.3146578 116.277166,18.8388165 C114.901663,19.3640787 113.69665,20.1790076 112.781855,21.1925651 C111.831748,22.2066743 111.08027,23.4475511 110.591423,24.8870565 C110.102024,26.3260102 109.839945,27.8576571 109.839945,29.5586902 C109.839945,33.1180038 110.853502,35.8971486 112.845857,37.9888178 C114.83766,40.0810387 117.681359,41.0945962 121.339436,41.0945962 C122.941706,41.0945962 124.310036,40.8678286 125.550913,40.4705714 C126.79179,40.0810387 127.805347,39.5204648 128.620828,38.9041644 C129.40817,38.2801397 130.059782,37.6279759 130.449866,36.9471213 C130.910574,36.2949575 131.073891,35.6709327 131.073891,35.181534 C131.073891,34.5933727 130.910574,34.1679765 130.54918,33.8418946 C130.187235,33.515261 129.698388,33.3524959 129.109675,33.3524959 C128.584964,33.3524959 128.159568,33.4518102 127.86935,33.7138895 C127.153183,34.3379143 126.593161,34.8554521 126.139074,35.2814 C125.678366,35.6714844 125.188968,36.0328781 124.67143,36.3942717 C124.154444,36.7556654 123.59387,36.982433 123.04102,37.1457498 C122.452307,37.2732032 121.828834,37.3725175 121.176119,37.3725175 C120.197321,37.3725175 119.283078,37.1098863 118.432286,36.6210394 C117.644944,36.1316406 116.928778,35.3807143 116.439931,34.4013651 C115.951084,33.3878076 115.689004,32.2743841 115.689004,30.9706083 L126.798963,30.9706083 C128.30854,30.9915746 129.485966,30.7642552 130.166269,30.4381733 L130.166269,30.4381733 Z M117.361898,23.4403784 C118.24083,22.4621327 119.418256,21.9732857 120.821898,21.9732857 C122.325406,21.9732857 123.530419,22.4621327 124.416523,23.4403784 C125.295455,24.4191759 125.855477,25.8233695 125.983482,27.7870337 L115.731489,27.7870337 C115.894254,25.893993 116.482415,24.4191759 117.361898,23.4403784 Z" id="Fill-9"></path>
                            <path d="M151.273313,19.4562203 C149.805669,18.5767371 148.203398,18.1160292 146.473123,18.1160292 C145.005478,18.1160292 143.72929,18.4421111 142.552415,19.0661359 C141.375541,19.6901606 140.297981,20.6330946 139.219869,21.9445949 L139.219869,21.2918794 C139.219869,20.2783219 138.95779,19.4628413 138.369077,18.9099917 C137.879678,18.3212787 137.227514,18.0591994 136.412585,18.0591994 C135.597105,18.0591994 134.97308,18.3212787 134.519545,18.846541 C134.030146,19.3706997 133.803378,20.1861803 133.803378,21.2284286 L133.803378,45.702779 C133.803378,46.9155168 133.966695,47.82976 134.328089,48.5106146 C134.689483,49.1627784 135.405649,49.4894121 136.45507,49.4894121 C138.284108,49.4894121 139.163591,48.2485352 139.163591,45.7673333 L139.163591,37.2307187 C140.177149,38.5069073 141.219949,39.4498413 142.33282,40.1091778 C143.445692,40.7613416 144.814574,41.0874235 146.416293,41.0874235 C147.756484,41.0874235 149.033224,40.8253441 150.210098,40.3006337 C151.351661,39.7759232 152.40053,39.0244451 153.216011,38.0456476 C154.094942,37.0320902 154.78297,35.8265251 155.271817,34.3522597 C155.797079,32.8846152 156.023295,31.281793 156.023295,29.5520692 C156.023295,27.1983206 155.562587,25.1419632 154.747658,23.4122394 C153.925004,21.6825156 152.74813,20.3423244 151.273313,19.4562203 L151.273313,19.4562203 Z M149.60704,33.4446375 C149.146332,34.5221975 148.494168,35.3376781 147.714551,35.8977003 C146.92721,36.4224108 146.012415,36.6850419 145.09762,36.6850419 C143.531213,36.6850419 142.219712,36.0610171 141.142152,34.8201403 C140.064041,33.5798152 139.53933,31.8495397 139.53933,29.5951054 C139.53933,27.212666 140.064041,25.411767 141.142152,24.1708902 C142.219712,22.9300133 143.52404,22.3065403 145.09762,22.3065403 C146.111729,22.3065403 146.99066,22.5686197 147.806693,23.1573327 C148.621622,23.745494 149.273785,24.5962863 149.699733,25.6385346 C150.160441,26.7160946 150.351345,27.9922832 150.351345,29.4957911 C150.358518,31.0550254 150.13175,32.3599048 149.60704,33.4446375 L149.60704,33.4446375 Z" id="Fill-10"></path>
                            <path d="M161.730556,18.1160292 C160.879763,18.1160292 160.227599,18.3781086 159.67475,18.9662698 C159.185351,19.5549829 158.923272,20.4057752 158.923272,21.512026 L158.923272,37.7830165 C158.923272,38.8611283 159.150039,39.7400597 159.67475,40.3287727 C160.19946,40.916934 160.886936,41.2077041 161.730556,41.2077041 C162.517897,41.2077041 163.234063,40.8816222 163.786913,40.3287727 C164.311623,39.7400597 164.574255,38.8892673 164.574255,37.7477048 L164.574255,21.3487092 C164.574255,20.3351517 164.311623,19.5191194 163.786913,18.9949606 C163.234063,18.3781086 162.5819,18.1160292 161.730556,18.1160292" id="Fill-11"></path>
                            <path d="M163.723462,10.6006965 C163.134749,10.1112978 162.511276,9.88453016 161.766419,9.88453016 C161.022114,9.88453016 160.327465,10.1466095 159.774616,10.67132 C159.185903,11.1960305 158.923272,11.8840578 158.923272,12.6636749 C158.923272,13.5431581 159.185903,14.2306337 159.774616,14.7200324 C160.298775,15.2094311 160.986802,15.4361987 161.766419,15.4361987 C162.517897,15.4361987 163.205924,15.1735676 163.723462,14.6847206 C164.311623,14.1953219 164.574255,13.5431581 164.574255,12.6283632 C164.574255,11.74888 164.311623,11.0972679 163.723462,10.6006965" id="Fill-12"></path>
                            <path d="M188.360578,37.1667162 C188.197813,36.8053225 187.871731,36.2877848 187.410471,35.5997575 L181.596723,26.4540152 L184.603187,23.7101822 C186.169594,22.3346794 186.921072,21.2284286 186.921072,20.3776362 C186.921072,19.7254724 186.694857,19.1367594 186.205458,18.6760514 C185.716059,18.2153435 185.127346,18.0233359 184.43987,18.0233359 C183.851709,18.0233359 183.326999,18.151341 182.936914,18.4845956 C182.475655,18.8106775 181.922805,19.3353879 181.107876,20.1861803 L174.769418,26.8860324 L174.769418,13.1530737 C174.769418,12.0115111 174.54265,11.0967162 174.01794,10.536694 C173.493229,9.98384444 172.805754,9.65721079 171.92627,9.65721079 C170.976164,9.65721079 170.324,9.98384444 169.834601,10.6360083 C169.345203,11.2887238 169.118435,12.2669695 169.118435,13.5144673 L169.118435,37.6914267 C169.118435,38.8329892 169.381066,39.6837816 169.869913,40.2724946 C170.35876,40.8612076 171.011476,41.151426 171.92627,41.151426 C172.677749,41.151426 173.365776,40.8253441 173.918625,40.2724946 C174.506787,39.6837816 174.769418,38.8329892 174.769418,37.7272902 L174.769418,33.2178698 L177.839333,30.3394108 L182.872912,38.5709098 C183.496937,39.5491556 184.014474,40.2018711 184.340556,40.562713 C184.70195,40.9533492 185.219488,41.151426 185.942827,41.151426 C186.730168,41.151426 187.410471,40.8887949 187.89987,40.3640844 C188.424029,39.839374 188.650796,39.1237594 188.650796,38.2371035 C188.616036,37.8541917 188.523895,37.5281098 188.360578,37.1667162" id="Fill-13"></path>
                        </g>
                        <text id="BOOTCAMP" font-family="Montserrat-SemiBold, Montserrat" font-size="16.8" font-weight="500" letter-spacing="1.2">
                            <tspan x="204" y="32.8">BOOTCAMP</tspan>
                        </text>
                    </g>
                </g>
            </g>
        </g>
    </g>
</svg>