<?xml version="1.0" encoding="UTF-8"?>
<svg width="104px" height="104px" viewBox="0 0 104 104" version="1.1" xmlns="http://www.w3.org/2000/svg" xmlns:xlink="http://www.w3.org/1999/xlink">
    <!-- Generator: Sketch 47.1 (45422) - http://www.bohemiancoding.com/sketch -->
    <title>Page 1</title>
    <desc>Created with Sketch.</desc>
    <defs></defs>
    <g id="Bootcamp" stroke="none" stroke-width="1" fill="none" fill-rule="evenodd">
        <g transform="translate(-740.000000, -2155.000000)" id="Group-38" stroke-width="2.5" stroke="#FFFFFF">
            <g transform="translate(0.000000, 1800.000000)">
                <g id="Group-35" transform="translate(226.000000, 139.000000)">
                    <g id="Group-44">
                        <g id="Group-52">
                            <g id="Group-42" transform="translate(0.000000, 218.000000)">
                                <g id="Group-33" transform="translate(516.000000, 0.000000)">
                                    <g id="Item-3">
                                        <g id="Group-39">
                                            <g id="Page-1">
                                                <g id="Group-5">
                                                    <polyline id="Stroke-1" points="17.7419355 87.2407358 0 87.2407358 0 0 100 0 100 87.2407358 82.2580645 87.2407358"></polyline>
                                                    <path d="M0,12.9245535 L100,12.9245535" id="Stroke-3"></path>
                                                </g>
                                                <path d="M4.83870968,6.46227673 L8.06451613,6.46227673" id="Stroke-6"></path>
                                                <path d="M11.2903226,6.46227673 L14.516129,6.46227673" id="Stroke-7"></path>
                                                <path d="M17.7419355,6.46227673 L20.9677419,6.46227673" id="Stroke-8"></path>
                                                <path d="M25.8064516,0 L25.8064516,12.9245535" id="Stroke-9"></path>
                                                <path d="M30.6451613,6.46227673 L95.1612903,6.46227673" id="Stroke-11"></path>
                                                <polyline id="Stroke-12" points="17.7419355 80.7784591 6.4516129 80.7784591 6.4516129 19.3868302 93.5483871 19.3868302 93.5483871 80.7784591 82.2580645 80.7784591"></polyline>
                                                <path d="M11.2903226,25.8491069 L30.6451613,25.8491069" id="Stroke-13"></path>
                                                <path d="M11.2903226,32.3113836 L37.0967742,32.3113836" id="Stroke-14"></path>
                                                <path d="M11.2903226,38.7736604 L27.4193548,38.7736604" id="Stroke-15"></path>
                                                <path d="M40.3225806,32.3113836 L50,32.3113836" id="Stroke-16"></path>
                                                <path d="M53.2258065,32.3113836 L69.3548387,32.3113836" id="Stroke-17"></path>
                                                <path d="M30.6451613,38.7736604 L40.3225806,38.7736604" id="Stroke-18"></path>
                                                <path d="M11.2903226,45.2359371 L24.1935484,45.2359371" id="Stroke-19"></path>
                                                <path d="M33.8709677,25.8491069 L46.7741935,25.8491069" id="Stroke-20"></path>
                                                <g id="Group-27" transform="translate(20.967742, 42.004799)">
                                                    <path d="M55.0812903,16.3007699 L46.2570968,16.5447209 L49.2183871,8.20676833 C47.2635484,6.30685897 45.0490323,4.68159637 42.6248387,3.39237217 L35.6119355,8.79645108 L33.1183871,0.321175153 C31.7796774,0.132153559 30.4232258,-0.000323113836 29.0329032,-0.000323113836 C27.6409677,-0.000323113836 26.2845161,0.132153559 24.9458065,0.321175153 L22.453871,8.79645108 L15.4393548,3.39237217 C13.0151613,4.68159637 10.8006452,6.30685897 8.84580645,8.20676833 L11.8070968,16.5447209 L2.98290323,16.3007699 C1.79580645,18.7257393 0.936129032,21.3332679 0.458709677,24.0813511 L7.74096774,29.0799222 L0.458709677,34.0784932 C0.936129032,36.8265764 1.79580645,39.434105 2.98290323,41.8590744 L11.8070968,41.6151234 L8.84580645,49.953076 C10.8006452,51.8529853 13.0151613,53.4798635 15.4393548,54.7690877 L22.453871,49.3633932 L24.9458065,57.8386692 C26.2845161,58.0276907 27.6409677,58.1601674 29.0329032,58.1601674 C30.4232258,58.1601674 31.7796774,58.0276907 33.1183871,57.8386692 L35.6119355,49.3633932 L42.6248387,54.7690877 C45.0490323,53.4798635 47.2635484,51.8529853 49.2183871,49.953076 L46.2570968,41.6151234 L55.0812903,41.8590744 C56.2683871,39.434105 57.1296774,36.8265764 57.6054839,34.0784932 L50.3232258,29.0799222 L57.6054839,24.0813511 C57.1296774,21.3332679 56.2683871,18.7257393 55.0812903,16.3007699 Z" id="Stroke-21" stroke-linejoin="round"></path>
                                                    <path d="M43.5483871,29.0802453 C43.5483871,37.1112397 37.05,43.6203679 29.0322581,43.6203679 C21.0145161,43.6203679 14.516129,37.1112397 14.516129,29.0802453 C14.516129,21.0492509 21.0145161,14.5401226 29.0322581,14.5401226 C37.05,14.5401226 43.5483871,21.0492509 43.5483871,29.0802453 Z" id="Stroke-23"></path>
                                                    <path d="M37.0967742,29.0802453 C37.0967742,33.5424473 33.4854839,37.1580912 29.0322581,37.1580912 C24.5790323,37.1580912 20.9677419,33.5424473 20.9677419,29.0802453 C20.9677419,24.6180432 24.5790323,21.0023994 29.0322581,21.0023994 C33.4854839,21.0023994 37.0967742,24.6180432 37.0967742,29.0802453 Z" id="Stroke-25"></path>
                                                </g>
                                            </g>
                                        </g>
                                    </g>
                                </g>
                            </g>
                        </g>
                    </g>
                </g>
            </g>
        </g>
    </g>
</svg>