<?xml version="1.0" encoding="UTF-8"?>
<svg width="103px" height="103px" viewBox="0 0 103 103" version="1.1" xmlns="http://www.w3.org/2000/svg" xmlns:xlink="http://www.w3.org/1999/xlink">
    <!-- Generator: Sketch 47.1 (45422) - http://www.bohemiancoding.com/sketch -->
    <title>Page 1</title>
    <desc>Created with Sketch.</desc>
    <defs></defs>
    <g id="Bootcamp" stroke="none" stroke-width="1" fill="none" fill-rule="evenodd">
        <g transform="translate(-477.000000, -2156.000000)" id="Group-38" stroke-width="2.47933884" stroke="#FFFFFF">
            <g transform="translate(0.000000, 1800.000000)">
                <g id="Group-35" transform="translate(226.000000, 139.000000)">
                    <g id="Group-44">
                        <g id="Group-52">
                            <g id="Group-42" transform="translate(0.000000, 218.000000)">
                                <g id="Group-32" transform="translate(253.000000, 1.000000)">
                                    <g id="Page-1">
                                        <path d="M14.396161,28.792322 L20.7944548,28.792322" id="Stroke-1"></path>
                                        <path d="M14.396161,35.1906158 L20.7944548,35.1906158" id="Stroke-2"></path>
                                        <path d="M14.396161,41.5889096 L20.7944548,41.5889096" id="Stroke-3"></path>
                                        <path d="M14.396161,47.9872034 L20.7944548,47.9872034" id="Stroke-4"></path>
                                        <path d="M14.396161,54.3854972 L20.7944548,54.3854972" id="Stroke-5"></path>
                                        <path d="M14.396161,60.783791 L20.7944548,60.783791" id="Stroke-6"></path>
                                        <path d="M14.396161,67.1820848 L20.7944548,67.1820848" id="Stroke-7"></path>
                                        <path d="M14.396161,73.5803786 L20.7944548,73.5803786" id="Stroke-8"></path>
                                        <path d="M14.396161,79.9786724 L20.7944548,79.9786724" id="Stroke-9"></path>
                                        <path d="M27.1927486,28.792322 L39.9893362,28.792322" id="Stroke-10"></path>
                                        <path d="M27.1927486,35.1906158 L49.5867769,35.1906158" id="Stroke-11"></path>
                                        <path d="M27.1927486,41.5889096 L49.5867769,41.5889096" id="Stroke-12"></path>
                                        <path d="M52.7859238,41.5889096 L68.7816582,41.5889096" id="Stroke-13"></path>
                                        <path d="M36.7901893,47.9872034 L49.5867769,47.9872034" id="Stroke-14"></path>
                                        <path d="M52.7859238,47.9872034 L62.3833644,47.9872034" id="Stroke-15"></path>
                                        <path d="M36.7901893,54.3854972 L49.5867769,54.3854972" id="Stroke-16"></path>
                                        <path d="M52.7859238,54.3854972 L68.7816582,54.3854972" id="Stroke-17"></path>
                                        <path d="M36.7901893,60.783791 L49.5867769,60.783791" id="Stroke-18"></path>
                                        <path d="M52.7859238,60.783791 L65.5825113,60.783791" id="Stroke-19"></path>
                                        <path d="M27.1927486,67.1820848 L49.5867769,67.1820848" id="Stroke-20"></path>
                                        <path d="M27.1927486,73.5803786 L49.5867769,73.5803786" id="Stroke-21"></path>
                                        <path d="M52.7859238,73.5803786 L68.7816582,73.5803786" id="Stroke-22"></path>
                                        <path d="M62.3833644,79.9786724 L52.7859238,79.9786724" id="Stroke-23"></path>
                                        <path d="M49.5867769,79.9786724 L36.7901893,79.9786724" id="Stroke-24"></path>
                                        <path d="M71.9808051,73.5803786 L78.3790989,73.5803786" id="Stroke-25"></path>
                                        <path d="M68.7816582,60.783791 L84.7773927,60.783791" id="Stroke-26"></path>
                                        <g id="Group-31">
                                            <polyline id="Stroke-27" points="55.9850706 95.9744068 0 95.9744068 0 0 92.7752599 0 92.7752599 27.1927486"></polyline>
                                            <path d="M0,12.7965876 L92.7752599,12.7965876" id="Stroke-29"></path>
                                        </g>
                                        <path d="M4.79872034,6.39829379 L7.99786724,6.39829379" id="Stroke-32"></path>
                                        <path d="M11.1970141,6.39829379 L14.396161,6.39829379" id="Stroke-33"></path>
                                        <path d="M17.5953079,6.39829379 L20.7944548,6.39829379" id="Stroke-34"></path>
                                        <path d="M25.5931752,0 L25.5931752,12.7965876" id="Stroke-35"></path>
                                        <path d="M30.3918955,6.39829379 L87.9765396,6.39829379" id="Stroke-37"></path>
                                        <polyline id="Stroke-38" points="55.9850706 89.576113 6.39829379 89.576113 6.39829379 19.1948814 86.3769661 19.1948814 86.3769661 27.1927486"></polyline>
                                        <path d="M83.1778192,92.7752599 L76.7795255,92.7752599" id="Stroke-39"></path>
                                        <path d="M83.1778192,38.3897627 L76.7795255,38.3897627" id="Stroke-40"></path>
                                        <g id="Group-47" transform="translate(60.783791, 31.991469)">
                                            <path d="M0,4.79872034 L0,3.19914689 C0,1.43321781 1.43321781,0 3.19914689,0 L35.1906158,0 C36.9565449,0 38.3897627,1.43321781 38.3897627,3.19914689 L38.3897627,63.9829379 C38.3897627,65.748867 36.9565449,67.1820848 35.1906158,67.1820848 L3.19914689,67.1820848 C1.43321781,67.1820848 0,65.748867 0,63.9829379 L0,54.3854972 L38.3897627,54.3854972" id="Stroke-41"></path>
                                            <path d="M4.79872034,15.9957345 L15.9957345,15.9957345" id="Stroke-43"></path>
                                            <path d="M4.79872034,47.9872034 L20.7944548,47.9872034" id="Stroke-45"></path>
                                        </g>
                                    </g>
                                </g>
                            </g>
                        </g>
                    </g>
                </g>
            </g>
        </g>
    </g>
</svg>