<?xml version="1.0" encoding="UTF-8"?>
<svg width="104px" height="104px" viewBox="0 0 104 104" version="1.1" xmlns="http://www.w3.org/2000/svg" xmlns:xlink="http://www.w3.org/1999/xlink">
    <!-- Generator: Sketch 47.1 (45422) - http://www.bohemiancoding.com/sketch -->
    <title>Page 1</title>
    <desc>Created with Sketch.</desc>
    <defs></defs>
    <g id="Bootcamp" stroke="none" stroke-width="1" fill="none" fill-rule="evenodd">
        <g transform="translate(-993.000000, -2155.000000)" id="Group-38" stroke-width="2.5" stroke="#FFFFFF">
            <g transform="translate(0.000000, 1800.000000)">
                <g id="Group-35" transform="translate(226.000000, 139.000000)">
                    <g id="Group-44">
                        <g id="Group-52">
                            <g id="Group-42" transform="translate(0.000000, 218.000000)">
                                <g id="Group-34" transform="translate(769.000000, 0.000000)">
                                    <g id="Item-4">
                                        <g id="Group-40">
                                            <g id="Page-1">
                                                <g id="Group-4">
                                                    <polygon id="Stroke-1" points="0 100 100 100 100 0 0 0"></polygon>
                                                    <path d="M0,12.9032258 L100,12.9032258" id="Stroke-3"></path>
                                                </g>
                                                <path d="M4.83870968,6.4516129 L8.06451613,6.4516129" id="Stroke-5"></path>
                                                <path d="M11.2903226,6.4516129 L14.516129,6.4516129" id="Stroke-6"></path>
                                                <path d="M17.7419355,6.4516129 L20.9677419,6.4516129" id="Stroke-7"></path>
                                                <path d="M25.8064516,0 L25.8064516,12.9032258" id="Stroke-8"></path>
                                                <path d="M30.6451613,6.4516129 L95.1612903,6.4516129" id="Stroke-10"></path>
                                                <polygon id="Stroke-11" points="6.4516129 93.5483871 93.5483871 93.5483871 93.5483871 19.3548387 6.4516129 19.3548387"></polygon>
                                                <path d="M25.8064516,25.8064516 L25.8064516,87.0967742" id="Stroke-12"></path>
                                                <path d="M12.9032258,27.4193548 L20.9677419,27.4193548" id="Stroke-13"></path>
                                                <path d="M12.9032258,33.8709677 L25.8064516,33.8709677" id="Stroke-14"></path>
                                                <path d="M17.7419355,40.3225806 L20.9677419,40.3225806" id="Stroke-15"></path>
                                                <path d="M17.7419355,46.7741935 L20.9677419,46.7741935" id="Stroke-16"></path>
                                                <path d="M12.9032258,53.2258065 L25.8064516,53.2258065" id="Stroke-17"></path>
                                                <path d="M17.7419355,66.1290323 L20.9677419,66.1290323" id="Stroke-18"></path>
                                                <path d="M17.7419355,59.6774194 L20.9677419,59.6774194" id="Stroke-19"></path>
                                                <path d="M17.7419355,72.5806452 L20.9677419,72.5806452" id="Stroke-20"></path>
                                                <path d="M17.7419355,79.0322581 L20.9677419,79.0322581" id="Stroke-21"></path>
                                                <path d="M32.2580645,50 L87.0967742,50" id="Stroke-22" stroke-linejoin="round"></path>
                                                <path d="M33.8709677,50 L33.8709677,37.0967742" id="Stroke-23" stroke-linejoin="round"></path>
                                                <path d="M40.3225806,50 L40.3225806,40.3225806" id="Stroke-24" stroke-linejoin="round"></path>
                                                <path d="M53.2258065,50 L53.2258065,43.5483871" id="Stroke-25" stroke-linejoin="round"></path>
                                                <path d="M59.6774194,50 L59.6774194,37.0967742" id="Stroke-26" stroke-linejoin="round"></path>
                                                <path d="M66.1290323,50 L66.1290323,43.5483871" id="Stroke-27" stroke-linejoin="round"></path>
                                                <path d="M72.5806452,50 L72.5806452,37.0967742" id="Stroke-28" stroke-linejoin="round"></path>
                                                <path d="M79.0322581,50 L79.0322581,43.5483871" id="Stroke-29" stroke-linejoin="round"></path>
                                                <path d="M85.483871,50 L85.483871,40.3225806" id="Stroke-30" stroke-linejoin="round"></path>
                                                <path d="M46.7741935,50 L46.7741935,33.8709677" id="Stroke-31" stroke-linejoin="round"></path>
                                                <polygon id="Stroke-32" stroke-linejoin="round" points="33.8709677 64.516129 41.9354839 64.516129 41.9354839 56.4516129 33.8709677 56.4516129"></polygon>
                                                <polygon id="Stroke-33" stroke-linejoin="round" points="48.3870968 64.516129 56.4516129 64.516129 56.4516129 56.4516129 48.3870968 56.4516129"></polygon>
                                                <polygon id="Stroke-34" stroke-linejoin="round" points="62.9032258 64.516129 70.9677419 64.516129 70.9677419 56.4516129 62.9032258 56.4516129"></polygon>
                                                <polygon id="Stroke-35" stroke-linejoin="round" points="77.4193548 64.516129 85.483871 64.516129 85.483871 56.4516129 77.4193548 56.4516129"></polygon>
                                                <path d="M70.9677419,27.4193548 L87.0967742,27.4193548" id="Stroke-36" stroke-linejoin="round"></path>
                                                <path d="M67.7419355,27.4193548 L61.2903226,27.4193548" id="Stroke-37" stroke-linejoin="round"></path>
                                                <path d="M32.2580645,70.9677419 L43.5483871,70.9677419" id="Stroke-38" stroke-linejoin="round"></path>
                                                <path d="M32.2580645,77.4193548 L43.5483871,77.4193548" id="Stroke-39" stroke-linejoin="round"></path>
                                                <path d="M46.7741935,70.9677419 L58.0645161,70.9677419" id="Stroke-40" stroke-linejoin="round"></path>
                                                <path d="M46.7741935,77.4193548 L58.0645161,77.4193548" id="Stroke-41" stroke-linejoin="round"></path>
                                                <path d="M61.2903226,70.9677419 L72.5806452,70.9677419" id="Stroke-42" stroke-linejoin="round"></path>
                                                <path d="M61.2903226,77.4193548 L72.5806452,77.4193548" id="Stroke-43" stroke-linejoin="round"></path>
                                                <path d="M75.8064516,70.9677419 L87.0967742,70.9677419" id="Stroke-44" stroke-linejoin="round"></path>
                                                <path d="M75.8064516,77.4193548 L87.0967742,77.4193548" id="Stroke-45" stroke-linejoin="round"></path>
                                            </g>
                                        </g>
                                    </g>
                                </g>
                            </g>
                        </g>
                    </g>
                </g>
            </g>
        </g>
    </g>
</svg>